<svg width="645" height="402" viewBox="0 0 645 402" fill="none" xmlns="http://www.w3.org/2000/svg">
<path d="M370 380C370 367.85 379.858 358 392.008 358C455.744 358 499.256 358 562.992 358C575.142 358 585 367.85 585 380V380C585 392.15 575.15 402 563 402H392C379.85 402 370 392.15 370 380V380Z" fill="#FFC700"/>
<path d="M436.508 380.395C434.578 379.84 433.172 379.16 432.289 378.355C431.414 377.543 430.977 376.543 430.977 375.355C430.977 374.012 431.512 372.902 432.582 372.027C433.66 371.145 435.059 370.703 436.777 370.703C437.949 370.703 438.992 370.93 439.906 371.383C440.828 371.836 441.539 372.461 442.039 373.258C442.547 374.055 442.801 374.926 442.801 375.871H440.539C440.539 374.84 440.211 374.031 439.555 373.445C438.898 372.852 437.973 372.555 436.777 372.555C435.668 372.555 434.801 372.801 434.176 373.293C433.559 373.777 433.25 374.453 433.25 375.32C433.25 376.016 433.543 376.605 434.129 377.09C434.723 377.566 435.727 378.004 437.141 378.402C438.562 378.801 439.672 379.242 440.469 379.727C441.273 380.203 441.867 380.762 442.25 381.402C442.641 382.043 442.836 382.797 442.836 383.664C442.836 385.047 442.297 386.156 441.219 386.992C440.141 387.82 438.699 388.234 436.895 388.234C435.723 388.234 434.629 388.012 433.613 387.566C432.598 387.113 431.812 386.496 431.258 385.715C430.711 384.934 430.438 384.047 430.438 383.055H432.699C432.699 384.086 433.078 384.902 433.836 385.504C434.602 386.098 435.621 386.395 436.895 386.395C438.082 386.395 438.992 386.152 439.625 385.668C440.258 385.184 440.574 384.523 440.574 383.688C440.574 382.852 440.281 382.207 439.695 381.754C439.109 381.293 438.047 380.84 436.508 380.395ZM447.746 388H445.578V375.32H447.746V388ZM445.402 371.957C445.402 371.605 445.508 371.309 445.719 371.066C445.938 370.824 446.258 370.703 446.68 370.703C447.102 370.703 447.422 370.824 447.641 371.066C447.859 371.309 447.969 371.605 447.969 371.957C447.969 372.309 447.859 372.602 447.641 372.836C447.422 373.07 447.102 373.188 446.68 373.188C446.258 373.188 445.938 373.07 445.719 372.836C445.508 372.602 445.402 372.309 445.402 371.957ZM450.711 381.555C450.711 379.578 451.168 378.008 452.082 376.844C452.996 375.672 454.207 375.086 455.715 375.086C457.262 375.086 458.469 375.633 459.336 376.727L459.441 375.32H461.422V387.695C461.422 389.336 460.934 390.629 459.957 391.574C458.988 392.52 457.684 392.992 456.043 392.992C455.129 392.992 454.234 392.797 453.359 392.406C452.484 392.016 451.816 391.48 451.355 390.801L452.48 389.5C453.41 390.648 454.547 391.223 455.891 391.223C456.945 391.223 457.766 390.926 458.352 390.332C458.945 389.738 459.242 388.902 459.242 387.824V386.734C458.375 387.734 457.191 388.234 455.691 388.234C454.207 388.234 453.004 387.637 452.082 386.441C451.168 385.246 450.711 383.617 450.711 381.555ZM452.891 381.801C452.891 383.23 453.184 384.355 453.77 385.176C454.355 385.988 455.176 386.395 456.23 386.395C457.598 386.395 458.602 385.773 459.242 384.531V378.742C458.578 377.531 457.582 376.926 456.254 376.926C455.199 376.926 454.375 377.336 453.781 378.156C453.188 378.977 452.891 380.191 452.891 381.801ZM472.531 386.746C471.688 387.738 470.449 388.234 468.816 388.234C467.465 388.234 466.434 387.844 465.723 387.062C465.02 386.273 464.664 385.109 464.656 383.57V375.32H466.824V383.512C466.824 385.434 467.605 386.395 469.168 386.395C470.824 386.395 471.926 385.777 472.473 384.543V375.32H474.641V388H472.578L472.531 386.746ZM480.301 388H478.133V375.32H480.301V388ZM477.957 371.957C477.957 371.605 478.062 371.309 478.273 371.066C478.492 370.824 478.812 370.703 479.234 370.703C479.656 370.703 479.977 370.824 480.195 371.066C480.414 371.309 480.523 371.605 480.523 371.957C480.523 372.309 480.414 372.602 480.195 372.836C479.977 373.07 479.656 373.188 479.234 373.188C478.812 373.188 478.492 373.07 478.273 372.836C478.062 372.602 477.957 372.309 477.957 371.957ZM489.043 388.234C487.324 388.234 485.926 387.672 484.848 386.547C483.77 385.414 483.23 383.902 483.23 382.012V381.613C483.23 380.355 483.469 379.234 483.945 378.25C484.43 377.258 485.102 376.484 485.961 375.93C486.828 375.367 487.766 375.086 488.773 375.086C490.422 375.086 491.703 375.629 492.617 376.715C493.531 377.801 493.988 379.355 493.988 381.379V382.281H485.398C485.43 383.531 485.793 384.543 486.488 385.316C487.191 386.082 488.082 386.465 489.16 386.465C489.926 386.465 490.574 386.309 491.105 385.996C491.637 385.684 492.102 385.27 492.5 384.754L493.824 385.785C492.762 387.418 491.168 388.234 489.043 388.234ZM488.773 376.867C487.898 376.867 487.164 377.188 486.57 377.828C485.977 378.461 485.609 379.352 485.469 380.5H491.82V380.336C491.758 379.234 491.461 378.383 490.93 377.781C490.398 377.172 489.68 376.867 488.773 376.867ZM498.559 375.32L498.629 376.914C499.598 375.695 500.863 375.086 502.426 375.086C505.105 375.086 506.457 376.598 506.48 379.621V388H504.312V379.609C504.305 378.695 504.094 378.02 503.68 377.582C503.273 377.145 502.637 376.926 501.77 376.926C501.066 376.926 500.449 377.113 499.918 377.488C499.387 377.863 498.973 378.355 498.676 378.965V388H496.508V375.32H498.559ZM512.691 372.25V375.32H515.059V376.996H512.691V384.859C512.691 385.367 512.797 385.75 513.008 386.008C513.219 386.258 513.578 386.383 514.086 386.383C514.336 386.383 514.68 386.336 515.117 386.242V388C514.547 388.156 513.992 388.234 513.453 388.234C512.484 388.234 511.754 387.941 511.262 387.355C510.77 386.77 510.523 385.938 510.523 384.859V376.996H508.215V375.32H510.523V372.25H512.691ZM522.863 388.234C521.145 388.234 519.746 387.672 518.668 386.547C517.59 385.414 517.051 383.902 517.051 382.012V381.613C517.051 380.355 517.289 379.234 517.766 378.25C518.25 377.258 518.922 376.484 519.781 375.93C520.648 375.367 521.586 375.086 522.594 375.086C524.242 375.086 525.523 375.629 526.438 376.715C527.352 377.801 527.809 379.355 527.809 381.379V382.281H519.219C519.25 383.531 519.613 384.543 520.309 385.316C521.012 386.082 521.902 386.465 522.98 386.465C523.746 386.465 524.395 386.309 524.926 385.996C525.457 385.684 525.922 385.27 526.32 384.754L527.645 385.785C526.582 387.418 524.988 388.234 522.863 388.234ZM522.594 376.867C521.719 376.867 520.984 377.188 520.391 377.828C519.797 378.461 519.43 379.352 519.289 380.5H525.641V380.336C525.578 379.234 525.281 378.383 524.75 377.781C524.219 377.172 523.5 376.867 522.594 376.867Z" fill="white"/>
<path d="M116 380C116 367.85 125.85 358 138 358H309C321.15 358 331 367.85 331 380V380C331 392.15 321.15 402 309 402H138C125.85 402 116 392.15 116 380V380Z" fill="#020062"/>
<path d="M190.531 382.586C190.32 384.391 189.652 385.785 188.527 386.77C187.41 387.746 185.922 388.234 184.062 388.234C182.047 388.234 180.43 387.512 179.211 386.066C178 384.621 177.395 382.688 177.395 380.266V378.625C177.395 377.039 177.676 375.645 178.238 374.441C178.809 373.238 179.613 372.316 180.652 371.676C181.691 371.027 182.895 370.703 184.262 370.703C186.074 370.703 187.527 371.211 188.621 372.227C189.715 373.234 190.352 374.633 190.531 376.422H188.27C188.074 375.062 187.648 374.078 186.992 373.469C186.344 372.859 185.434 372.555 184.262 372.555C182.824 372.555 181.695 373.086 180.875 374.148C180.062 375.211 179.656 376.723 179.656 378.684V380.336C179.656 382.188 180.043 383.66 180.816 384.754C181.59 385.848 182.672 386.395 184.062 386.395C185.312 386.395 186.27 386.113 186.934 385.551C187.605 384.98 188.051 383.992 188.27 382.586H190.531ZM201.102 388C200.977 387.75 200.875 387.305 200.797 386.664C199.789 387.711 198.586 388.234 197.188 388.234C195.938 388.234 194.91 387.883 194.105 387.18C193.309 386.469 192.91 385.57 192.91 384.484C192.91 383.164 193.41 382.141 194.41 381.414C195.418 380.68 196.832 380.312 198.652 380.312H200.762V379.316C200.762 378.559 200.535 377.957 200.082 377.512C199.629 377.059 198.961 376.832 198.078 376.832C197.305 376.832 196.656 377.027 196.133 377.418C195.609 377.809 195.348 378.281 195.348 378.836H193.168C193.168 378.203 193.391 377.594 193.836 377.008C194.289 376.414 194.898 375.945 195.664 375.602C196.438 375.258 197.285 375.086 198.207 375.086C199.668 375.086 200.812 375.453 201.641 376.188C202.469 376.914 202.898 377.918 202.93 379.199V385.035C202.93 386.199 203.078 387.125 203.375 387.812V388H201.102ZM197.504 386.348C198.184 386.348 198.828 386.172 199.438 385.82C200.047 385.469 200.488 385.012 200.762 384.449V381.848H199.062C196.406 381.848 195.078 382.625 195.078 384.18C195.078 384.859 195.305 385.391 195.758 385.773C196.211 386.156 196.793 386.348 197.504 386.348ZM208.379 375.32L208.449 376.914C209.418 375.695 210.684 375.086 212.246 375.086C214.926 375.086 216.277 376.598 216.301 379.621V388H214.133V379.609C214.125 378.695 213.914 378.02 213.5 377.582C213.094 377.145 212.457 376.926 211.59 376.926C210.887 376.926 210.27 377.113 209.738 377.488C209.207 377.863 208.793 378.355 208.496 378.965V388H206.328V375.32H208.379ZM224.656 386.465C225.43 386.465 226.105 386.23 226.684 385.762C227.262 385.293 227.582 384.707 227.645 384.004H229.695C229.656 384.73 229.406 385.422 228.945 386.078C228.484 386.734 227.867 387.258 227.094 387.648C226.328 388.039 225.516 388.234 224.656 388.234C222.93 388.234 221.555 387.66 220.531 386.512C219.516 385.355 219.008 383.777 219.008 381.777V381.414C219.008 380.18 219.234 379.082 219.688 378.121C220.141 377.16 220.789 376.414 221.633 375.883C222.484 375.352 223.488 375.086 224.645 375.086C226.066 375.086 227.246 375.512 228.184 376.363C229.129 377.215 229.633 378.32 229.695 379.68H227.645C227.582 378.859 227.27 378.188 226.707 377.664C226.152 377.133 225.465 376.867 224.645 376.867C223.543 376.867 222.688 377.266 222.078 378.062C221.477 378.852 221.176 379.996 221.176 381.496V381.906C221.176 383.367 221.477 384.492 222.078 385.281C222.68 386.07 223.539 386.465 224.656 386.465ZM237.395 388.234C235.676 388.234 234.277 387.672 233.199 386.547C232.121 385.414 231.582 383.902 231.582 382.012V381.613C231.582 380.355 231.82 379.234 232.297 378.25C232.781 377.258 233.453 376.484 234.312 375.93C235.18 375.367 236.117 375.086 237.125 375.086C238.773 375.086 240.055 375.629 240.969 376.715C241.883 377.801 242.34 379.355 242.34 381.379V382.281H233.75C233.781 383.531 234.145 384.543 234.84 385.316C235.543 386.082 236.434 386.465 237.512 386.465C238.277 386.465 238.926 386.309 239.457 385.996C239.988 385.684 240.453 385.27 240.852 384.754L242.176 385.785C241.113 387.418 239.52 388.234 237.395 388.234ZM237.125 376.867C236.25 376.867 235.516 377.188 234.922 377.828C234.328 378.461 233.961 379.352 233.82 380.5H240.172V380.336C240.109 379.234 239.812 378.383 239.281 377.781C238.75 377.172 238.031 376.867 237.125 376.867ZM247.215 388H245.047V370H247.215V388ZM258.523 388C258.398 387.75 258.297 387.305 258.219 386.664C257.211 387.711 256.008 388.234 254.609 388.234C253.359 388.234 252.332 387.883 251.527 387.18C250.73 386.469 250.332 385.57 250.332 384.484C250.332 383.164 250.832 382.141 251.832 381.414C252.84 380.68 254.254 380.312 256.074 380.312H258.184V379.316C258.184 378.559 257.957 377.957 257.504 377.512C257.051 377.059 256.383 376.832 255.5 376.832C254.727 376.832 254.078 377.027 253.555 377.418C253.031 377.809 252.77 378.281 252.77 378.836H250.59C250.59 378.203 250.812 377.594 251.258 377.008C251.711 376.414 252.32 375.945 253.086 375.602C253.859 375.258 254.707 375.086 255.629 375.086C257.09 375.086 258.234 375.453 259.062 376.188C259.891 376.914 260.32 377.918 260.352 379.199V385.035C260.352 386.199 260.5 387.125 260.797 387.812V388H258.523ZM254.926 386.348C255.605 386.348 256.25 386.172 256.859 385.82C257.469 385.469 257.91 385.012 258.184 384.449V381.848H256.484C253.828 381.848 252.5 382.625 252.5 384.18C252.5 384.859 252.727 385.391 253.18 385.773C253.633 386.156 254.215 386.348 254.926 386.348ZM269.879 377.266C269.551 377.211 269.195 377.184 268.812 377.184C267.391 377.184 266.426 377.789 265.918 379V388H263.75V375.32H265.859L265.895 376.785C266.605 375.652 267.613 375.086 268.918 375.086C269.34 375.086 269.66 375.141 269.879 375.25V377.266Z" fill="white"/>
<path d="M190 243C190 238.582 193.582 235 198 235H447C451.418 235 455 238.582 455 243V280C455 284.418 451.418 288 447 288H198C193.582 288 190 284.418 190 280V243Z" fill="#E5E5E5"/>
<path d="M214.312 265.027H207.703L206.32 269H203.238L209.684 251.938H212.344L218.801 269H215.707L214.312 265.027ZM208.535 262.637H213.48L211.008 255.559L208.535 262.637Z" fill="#020062"/>
<path d="M222.551 256.32L222.633 257.785C223.57 256.652 224.801 256.086 226.324 256.086C228.965 256.086 230.309 257.598 230.355 260.621V269H227.508V260.785C227.508 259.98 227.332 259.387 226.98 259.004C226.637 258.613 226.07 258.418 225.281 258.418C224.133 258.418 223.277 258.938 222.715 259.977V269H219.867V256.32H222.551Z" fill="#020062"/>
<path d="M236.836 253.238V256.32H239.074V258.43H236.836V265.508C236.836 265.992 236.93 266.344 237.117 266.562C237.312 266.773 237.656 266.879 238.148 266.879C238.477 266.879 238.809 266.84 239.145 266.762V268.965C238.496 269.145 237.871 269.234 237.27 269.234C235.082 269.234 233.988 268.027 233.988 265.613V258.43H231.902V256.32H233.988V253.238H236.836Z" fill="#020062"/>
<path d="M244.289 269H241.441V256.32H244.289V269ZM241.266 253.027C241.266 252.59 241.402 252.227 241.676 251.938C241.957 251.648 242.355 251.504 242.871 251.504C243.387 251.504 243.785 251.648 244.066 251.938C244.348 252.227 244.488 252.59 244.488 253.027C244.488 253.457 244.348 253.816 244.066 254.105C243.785 254.387 243.387 254.527 242.871 254.527C242.355 254.527 241.957 254.387 241.676 254.105C241.402 253.816 241.266 253.457 241.266 253.027Z" fill="#020062"/>
<path d="M246.902 262.566C246.902 260.598 247.363 259.027 248.285 257.855C249.215 256.676 250.445 256.086 251.977 256.086C253.422 256.086 254.559 256.59 255.387 257.598L255.516 256.32H258.082V268.613C258.082 270.277 257.562 271.59 256.523 272.551C255.492 273.512 254.098 273.992 252.34 273.992C251.41 273.992 250.5 273.797 249.609 273.406C248.727 273.023 248.055 272.52 247.594 271.895L248.941 270.184C249.816 271.223 250.895 271.742 252.176 271.742C253.121 271.742 253.867 271.484 254.414 270.969C254.961 270.461 255.234 269.711 255.234 268.719V267.863C254.414 268.777 253.32 269.234 251.953 269.234C250.469 269.234 249.254 268.645 248.309 267.465C247.371 266.285 246.902 264.652 246.902 262.566ZM249.738 262.812C249.738 264.086 249.996 265.09 250.512 265.824C251.035 266.551 251.758 266.914 252.68 266.914C253.828 266.914 254.68 266.422 255.234 265.438V259.859C254.695 258.898 253.852 258.418 252.703 258.418C251.766 258.418 251.035 258.789 250.512 259.531C249.996 260.273 249.738 261.367 249.738 262.812Z" fill="#020062"/>
<path d="M268.699 267.758C267.863 268.742 266.676 269.234 265.137 269.234C263.762 269.234 262.719 268.832 262.008 268.027C261.305 267.223 260.953 266.059 260.953 264.535V256.32H263.801V264.5C263.801 266.109 264.469 266.914 265.805 266.914C267.188 266.914 268.121 266.418 268.605 265.426V256.32H271.453V269H268.77L268.699 267.758Z" fill="#020062"/>
<path d="M273.82 262.543C273.82 261.301 274.066 260.184 274.559 259.191C275.051 258.191 275.742 257.426 276.633 256.895C277.523 256.355 278.547 256.086 279.703 256.086C281.414 256.086 282.801 256.637 283.863 257.738C284.934 258.84 285.512 260.301 285.598 262.121L285.609 262.789C285.609 264.039 285.367 265.156 284.883 266.141C284.406 267.125 283.719 267.887 282.82 268.426C281.93 268.965 280.898 269.234 279.727 269.234C277.938 269.234 276.504 268.641 275.426 267.453C274.355 266.258 273.82 264.668 273.82 262.684V262.543ZM276.668 262.789C276.668 264.094 276.938 265.117 277.477 265.859C278.016 266.594 278.766 266.961 279.727 266.961C280.688 266.961 281.434 266.586 281.965 265.836C282.504 265.086 282.773 263.988 282.773 262.543C282.773 261.262 282.496 260.246 281.941 259.496C281.395 258.746 280.648 258.371 279.703 258.371C278.773 258.371 278.035 258.742 277.488 259.484C276.941 260.219 276.668 261.32 276.668 262.789Z" fill="#020062"/>
<path d="M307.289 263.445C307.117 265.266 306.445 266.688 305.273 267.711C304.102 268.727 302.543 269.234 300.598 269.234C299.238 269.234 298.039 268.914 297 268.273C295.969 267.625 295.172 266.707 294.609 265.52C294.047 264.332 293.754 262.953 293.73 261.383V259.789C293.73 258.18 294.016 256.762 294.586 255.535C295.156 254.309 295.973 253.363 297.035 252.699C298.105 252.035 299.34 251.703 300.738 251.703C302.621 251.703 304.137 252.215 305.285 253.238C306.434 254.262 307.102 255.707 307.289 257.574H304.336C304.195 256.348 303.836 255.465 303.258 254.926C302.688 254.379 301.848 254.105 300.738 254.105C299.449 254.105 298.457 254.578 297.762 255.523C297.074 256.461 296.723 257.84 296.707 259.66V261.172C296.707 263.016 297.035 264.422 297.691 265.391C298.355 266.359 299.324 266.844 300.598 266.844C301.762 266.844 302.637 266.582 303.223 266.059C303.809 265.535 304.18 264.664 304.336 263.445H307.289Z" fill="#020062"/>
<path d="M317.355 267.758C316.52 268.742 315.332 269.234 313.793 269.234C312.418 269.234 311.375 268.832 310.664 268.027C309.961 267.223 309.609 266.059 309.609 264.535V256.32H312.457V264.5C312.457 266.109 313.125 266.914 314.461 266.914C315.844 266.914 316.777 266.418 317.262 265.426V256.32H320.109V269H317.426L317.355 267.758Z" fill="#020062"/>
<path d="M330.117 265.555C330.117 265.047 329.906 264.66 329.484 264.395C329.07 264.129 328.379 263.895 327.41 263.691C326.441 263.488 325.633 263.23 324.984 262.918C323.562 262.23 322.852 261.234 322.852 259.93C322.852 258.836 323.312 257.922 324.234 257.188C325.156 256.453 326.328 256.086 327.75 256.086C329.266 256.086 330.488 256.461 331.418 257.211C332.355 257.961 332.824 258.934 332.824 260.129H329.977C329.977 259.582 329.773 259.129 329.367 258.77C328.961 258.402 328.422 258.219 327.75 258.219C327.125 258.219 326.613 258.363 326.215 258.652C325.824 258.941 325.629 259.328 325.629 259.812C325.629 260.25 325.812 260.59 326.18 260.832C326.547 261.074 327.289 261.32 328.406 261.57C329.523 261.812 330.398 262.105 331.031 262.449C331.672 262.785 332.145 263.191 332.449 263.668C332.762 264.145 332.918 264.723 332.918 265.402C332.918 266.543 332.445 267.469 331.5 268.18C330.555 268.883 329.316 269.234 327.785 269.234C326.746 269.234 325.82 269.047 325.008 268.672C324.195 268.297 323.562 267.781 323.109 267.125C322.656 266.469 322.43 265.762 322.43 265.004H325.195C325.234 265.676 325.488 266.195 325.957 266.562C326.426 266.922 327.047 267.102 327.82 267.102C328.57 267.102 329.141 266.961 329.531 266.68C329.922 266.391 330.117 266.016 330.117 265.555Z" fill="#020062"/>
<path d="M340.617 266.961C341.328 266.961 341.918 266.754 342.387 266.34C342.855 265.926 343.105 265.414 343.137 264.805H345.82C345.789 265.594 345.543 266.332 345.082 267.02C344.621 267.699 343.996 268.238 343.207 268.637C342.418 269.035 341.566 269.234 340.652 269.234C338.879 269.234 337.473 268.66 336.434 267.512C335.395 266.363 334.875 264.777 334.875 262.754V262.461C334.875 260.531 335.391 258.988 336.422 257.832C337.453 256.668 338.859 256.086 340.641 256.086C342.148 256.086 343.375 256.527 344.32 257.41C345.273 258.285 345.773 259.438 345.82 260.867H343.137C343.105 260.141 342.855 259.543 342.387 259.074C341.926 258.605 341.336 258.371 340.617 258.371C339.695 258.371 338.984 258.707 338.484 259.379C337.984 260.043 337.73 261.055 337.723 262.414V262.871C337.723 264.246 337.969 265.273 338.461 265.953C338.961 266.625 339.68 266.961 340.617 266.961Z" fill="#020062"/>
<path d="M355.547 269C355.422 268.758 355.312 268.363 355.219 267.816C354.312 268.762 353.203 269.234 351.891 269.234C350.617 269.234 349.578 268.871 348.773 268.145C347.969 267.418 347.566 266.52 347.566 265.449C347.566 264.098 348.066 263.062 349.066 262.344C350.074 261.617 351.512 261.254 353.379 261.254H355.125V260.422C355.125 259.766 354.941 259.242 354.574 258.852C354.207 258.453 353.648 258.254 352.898 258.254C352.25 258.254 351.719 258.418 351.305 258.746C350.891 259.066 350.684 259.477 350.684 259.977H347.836C347.836 259.281 348.066 258.633 348.527 258.031C348.988 257.422 349.613 256.945 350.402 256.602C351.199 256.258 352.086 256.086 353.062 256.086C354.547 256.086 355.73 256.461 356.613 257.211C357.496 257.953 357.949 259 357.973 260.352V266.07C357.973 267.211 358.133 268.121 358.453 268.801V269H355.547ZM352.418 266.949C352.98 266.949 353.508 266.812 354 266.539C354.5 266.266 354.875 265.898 355.125 265.438V263.047H353.59C352.535 263.047 351.742 263.23 351.211 263.598C350.68 263.965 350.414 264.484 350.414 265.156C350.414 265.703 350.594 266.141 350.953 266.469C351.32 266.789 351.809 266.949 352.418 266.949Z" fill="#020062"/>
<path d="M364.523 253.238V256.32H366.762V258.43H364.523V265.508C364.523 265.992 364.617 266.344 364.805 266.562C365 266.773 365.344 266.879 365.836 266.879C366.164 266.879 366.496 266.84 366.832 266.762V268.965C366.184 269.145 365.559 269.234 364.957 269.234C362.77 269.234 361.676 268.027 361.676 265.613V258.43H359.59V256.32H361.676V253.238H364.523Z" fill="#020062"/>
<path d="M371.977 269H369.129V251H371.977V269Z" fill="#020062"/>
<path d="M382.664 269C382.539 268.758 382.43 268.363 382.336 267.816C381.43 268.762 380.32 269.234 379.008 269.234C377.734 269.234 376.695 268.871 375.891 268.145C375.086 267.418 374.684 266.52 374.684 265.449C374.684 264.098 375.184 263.062 376.184 262.344C377.191 261.617 378.629 261.254 380.496 261.254H382.242V260.422C382.242 259.766 382.059 259.242 381.691 258.852C381.324 258.453 380.766 258.254 380.016 258.254C379.367 258.254 378.836 258.418 378.422 258.746C378.008 259.066 377.801 259.477 377.801 259.977H374.953C374.953 259.281 375.184 258.633 375.645 258.031C376.105 257.422 376.73 256.945 377.52 256.602C378.316 256.258 379.203 256.086 380.18 256.086C381.664 256.086 382.848 256.461 383.73 257.211C384.613 257.953 385.066 259 385.09 260.352V266.07C385.09 267.211 385.25 268.121 385.57 268.801V269H382.664ZM379.535 266.949C380.098 266.949 380.625 266.812 381.117 266.539C381.617 266.266 381.992 265.898 382.242 265.438V263.047H380.707C379.652 263.047 378.859 263.23 378.328 263.598C377.797 263.965 377.531 264.484 377.531 265.156C377.531 265.703 377.711 266.141 378.07 266.469C378.438 266.789 378.926 266.949 379.535 266.949ZM381.117 251H384.363L381.117 254.551H378.832L381.117 251Z" fill="#020062"/>
<path d="M390.715 256.32L390.797 257.785C391.734 256.652 392.965 256.086 394.488 256.086C397.129 256.086 398.473 257.598 398.52 260.621V269H395.672V260.785C395.672 259.98 395.496 259.387 395.145 259.004C394.801 258.613 394.234 258.418 393.445 258.418C392.297 258.418 391.441 258.938 390.879 259.977V269H388.031V256.32H390.715Z" fill="#020062"/>
<path fill-rule="evenodd" clip-rule="evenodd" d="M434.442 257.009L423.268 268.26C422.582 268.95 421.467 268.954 420.776 268.268L409.526 257.094C408.836 256.408 408.832 255.292 409.518 254.602C410.204 253.912 411.319 253.908 412.009 254.594L422.01 264.526L431.942 254.526C432.628 253.836 433.744 253.832 434.434 254.518C435.124 255.203 435.128 256.319 434.442 257.009Z" fill="#1CB4F5"/>
<path d="M188 152C188 147.582 191.582 144 196 144H445C449.418 144 453 147.582 453 152V189C453 193.418 449.418 197 445 197H196C191.582 197 188 193.418 188 189V152Z" fill="#E5E5E5"/>
<path d="M244.965 175.633H252.711V178H242V160.938H244.965V175.633Z" fill="#020062"/>
<path d="M262.285 178C262.16 177.758 262.051 177.363 261.957 176.816C261.051 177.762 259.941 178.234 258.629 178.234C257.355 178.234 256.316 177.871 255.512 177.145C254.707 176.418 254.305 175.52 254.305 174.449C254.305 173.098 254.805 172.062 255.805 171.344C256.812 170.617 258.25 170.254 260.117 170.254H261.863V169.422C261.863 168.766 261.68 168.242 261.312 167.852C260.945 167.453 260.387 167.254 259.637 167.254C258.988 167.254 258.457 167.418 258.043 167.746C257.629 168.066 257.422 168.477 257.422 168.977H254.574C254.574 168.281 254.805 167.633 255.266 167.031C255.727 166.422 256.352 165.945 257.141 165.602C257.938 165.258 258.824 165.086 259.801 165.086C261.285 165.086 262.469 165.461 263.352 166.211C264.234 166.953 264.688 168 264.711 169.352V175.07C264.711 176.211 264.871 177.121 265.191 177.801V178H262.285ZM259.156 175.949C259.719 175.949 260.246 175.812 260.738 175.539C261.238 175.266 261.613 174.898 261.863 174.438V172.047H260.328C259.273 172.047 258.48 172.23 257.949 172.598C257.418 172.965 257.152 173.484 257.152 174.156C257.152 174.703 257.332 175.141 257.691 175.469C258.059 175.789 258.547 175.949 259.156 175.949Z" fill="#020062"/>
<path d="M276.91 175.633H284.656V178H273.945V160.938H276.91V175.633Z" fill="#020062"/>
<path d="M289.684 178H286.836V165.32H289.684V178ZM286.66 162.027C286.66 161.59 286.797 161.227 287.07 160.938C287.352 160.648 287.75 160.504 288.266 160.504C288.781 160.504 289.18 160.648 289.461 160.938C289.742 161.227 289.883 161.59 289.883 162.027C289.883 162.457 289.742 162.816 289.461 163.105C289.18 163.387 288.781 163.527 288.266 163.527C287.75 163.527 287.352 163.387 287.07 163.105C286.797 162.816 286.66 162.457 286.66 162.027Z" fill="#020062"/>
<path d="M303.922 171.789C303.922 173.758 303.48 175.324 302.598 176.488C301.723 177.652 300.516 178.234 298.977 178.234C297.492 178.234 296.336 177.699 295.508 176.629L295.367 178H292.789V160H295.637V166.539C296.457 165.57 297.562 165.086 298.953 165.086C300.5 165.086 301.715 165.66 302.598 166.809C303.48 167.957 303.922 169.562 303.922 171.625V171.789ZM301.074 171.543C301.074 170.168 300.832 169.137 300.348 168.449C299.863 167.762 299.16 167.418 298.238 167.418C297.004 167.418 296.137 167.957 295.637 169.035V174.262C296.145 175.363 297.02 175.914 298.262 175.914C299.152 175.914 299.84 175.582 300.324 174.918C300.809 174.254 301.059 173.25 301.074 171.906V171.543Z" fill="#020062"/>
<path d="M311.902 178.234C310.098 178.234 308.633 177.668 307.508 176.535C306.391 175.395 305.832 173.879 305.832 171.988V171.637C305.832 170.371 306.074 169.242 306.559 168.25C307.051 167.25 307.738 166.473 308.621 165.918C309.504 165.363 310.488 165.086 311.574 165.086C313.301 165.086 314.633 165.637 315.57 166.738C316.516 167.84 316.988 169.398 316.988 171.414V172.562H308.703C308.789 173.609 309.137 174.438 309.746 175.047C310.363 175.656 311.137 175.961 312.066 175.961C313.371 175.961 314.434 175.434 315.254 174.379L316.789 175.844C316.281 176.602 315.602 177.191 314.75 177.613C313.906 178.027 312.957 178.234 311.902 178.234ZM311.562 167.371C310.781 167.371 310.148 167.645 309.664 168.191C309.188 168.738 308.883 169.5 308.75 170.477H314.176V170.266C314.113 169.312 313.859 168.594 313.414 168.109C312.969 167.617 312.352 167.371 311.562 167.371Z" fill="#020062"/>
<path d="M325.848 167.922C325.473 167.859 325.086 167.828 324.688 167.828C323.383 167.828 322.504 168.328 322.051 169.328V178H319.203V165.32H321.922L321.992 166.738C322.68 165.637 323.633 165.086 324.852 165.086C325.258 165.086 325.594 165.141 325.859 165.25L325.848 167.922Z" fill="#020062"/>
<path d="M331.801 162.238V165.32H334.039V167.43H331.801V174.508C331.801 174.992 331.895 175.344 332.082 175.562C332.277 175.773 332.621 175.879 333.113 175.879C333.441 175.879 333.773 175.84 334.109 175.762V177.965C333.461 178.145 332.836 178.234 332.234 178.234C330.047 178.234 328.953 177.027 328.953 174.613V167.43H326.867V165.32H328.953V162.238H331.801Z" fill="#020062"/>
<path d="M343.801 178C343.676 177.758 343.566 177.363 343.473 176.816C342.566 177.762 341.457 178.234 340.145 178.234C338.871 178.234 337.832 177.871 337.027 177.145C336.223 176.418 335.82 175.52 335.82 174.449C335.82 173.098 336.32 172.062 337.32 171.344C338.328 170.617 339.766 170.254 341.633 170.254H343.379V169.422C343.379 168.766 343.195 168.242 342.828 167.852C342.461 167.453 341.902 167.254 341.152 167.254C340.504 167.254 339.973 167.418 339.559 167.746C339.145 168.066 338.938 168.477 338.938 168.977H336.09C336.09 168.281 336.32 167.633 336.781 167.031C337.242 166.422 337.867 165.945 338.656 165.602C339.453 165.258 340.34 165.086 341.316 165.086C342.801 165.086 343.984 165.461 344.867 166.211C345.75 166.953 346.203 168 346.227 169.352V175.07C346.227 176.211 346.387 177.121 346.707 177.801V178H343.801ZM340.672 175.949C341.234 175.949 341.762 175.812 342.254 175.539C342.754 175.266 343.129 174.898 343.379 174.438V172.047H341.844C340.789 172.047 339.996 172.23 339.465 172.598C338.934 172.965 338.668 173.484 338.668 174.156C338.668 174.703 338.848 175.141 339.207 175.469C339.574 175.789 340.062 175.949 340.672 175.949Z" fill="#020062"/>
<path d="M348.676 171.566C348.676 169.613 349.129 168.047 350.035 166.867C350.941 165.68 352.156 165.086 353.68 165.086C355.023 165.086 356.109 165.555 356.938 166.492V160H359.785V178H357.207L357.066 176.688C356.215 177.719 355.078 178.234 353.656 178.234C352.172 178.234 350.969 177.637 350.047 176.441C349.133 175.246 348.676 173.621 348.676 171.566ZM351.523 171.812C351.523 173.102 351.77 174.109 352.262 174.836C352.762 175.555 353.469 175.914 354.383 175.914C355.547 175.914 356.398 175.395 356.938 174.355V168.941C356.414 167.926 355.57 167.418 354.406 167.418C353.484 167.418 352.773 167.785 352.273 168.52C351.773 169.246 351.523 170.344 351.523 171.812Z" fill="#020062"/>
<path fill-rule="evenodd" clip-rule="evenodd" d="M398.724 165.009L387.549 176.26C386.864 176.95 385.748 176.954 385.058 176.268L373.808 165.094C373.117 164.408 373.113 163.292 373.799 162.602C374.485 161.912 375.6 161.908 376.291 162.594L386.291 172.526L396.224 162.526C396.909 161.836 398.025 161.832 398.715 162.518C399.406 163.203 399.409 164.319 398.724 165.009Z" fill="#1CB4F5"/>
<rect x="444" width="201" height="59" rx="8" fill="#E5E5E5"/>
<rect width="201" height="59" rx="8" fill="#E5E5E5"/>
<rect x="220" width="201" height="59" rx="8" fill="#020062"/>
<path d="M40.2773 37H36.7617V19.9375H40.2773V37ZM46.4414 24.3203L46.5469 25.7852C47.4531 24.6523 48.668 24.0859 50.1914 24.0859C51.5352 24.0859 52.5352 24.4805 53.1914 25.2695C53.8477 26.0586 54.1836 27.2383 54.1992 28.8086V37H50.8125V28.8906C50.8125 28.1719 50.6562 27.6523 50.3438 27.332C50.0312 27.0039 49.5117 26.8398 48.7852 26.8398C47.832 26.8398 47.1172 27.2461 46.6406 28.0586V37H43.2539V24.3203H46.4414ZM57.7031 37V26.8047H55.8164V24.3203H57.7031V23.2422C57.7031 21.8203 58.1094 20.7188 58.9219 19.9375C59.7422 19.1484 60.8867 18.7539 62.3555 18.7539C62.8242 18.7539 63.3984 18.832 64.0781 18.9883L64.043 21.6133C63.7617 21.543 63.418 21.5078 63.0117 21.5078C61.7383 21.5078 61.1016 22.1055 61.1016 23.3008V24.3203H63.6211V26.8047H61.1016V37H57.7031ZM64.8516 30.543C64.8516 29.2852 65.0938 28.1641 65.5781 27.1797C66.0625 26.1953 66.7578 25.4336 67.6641 24.8945C68.5781 24.3555 69.6367 24.0859 70.8398 24.0859C72.5508 24.0859 73.9453 24.6094 75.0234 25.6562C76.1094 26.7031 76.7148 28.125 76.8398 29.9219L76.8633 30.7891C76.8633 32.7344 76.3203 34.2969 75.2344 35.4766C74.1484 36.6484 72.6914 37.2344 70.8633 37.2344C69.0352 37.2344 67.5742 36.6484 66.4805 35.4766C65.3945 34.3047 64.8516 32.7109 64.8516 30.6953V30.543ZM68.2383 30.7891C68.2383 31.9922 68.4648 32.9141 68.918 33.5547C69.3711 34.1875 70.0195 34.5039 70.8633 34.5039C71.6836 34.5039 72.3242 34.1914 72.7852 33.5664C73.2461 32.9336 73.4766 31.9258 73.4766 30.543C73.4766 29.3633 73.2461 28.4492 72.7852 27.8008C72.3242 27.1523 71.6758 26.8281 70.8398 26.8281C70.0117 26.8281 69.3711 27.1523 68.918 27.8008C68.4648 28.4414 68.2383 29.4375 68.2383 30.7891ZM86.0742 27.4961C85.6133 27.4336 85.207 27.4023 84.8555 27.4023C83.5742 27.4023 82.7344 27.8359 82.3359 28.7031V37H78.9492V24.3203H82.1484L82.2422 25.832C82.9219 24.668 83.8633 24.0859 85.0664 24.0859C85.4414 24.0859 85.793 24.1367 86.1211 24.2383L86.0742 27.4961ZM90.8906 24.3203L90.9961 25.7383C91.8945 24.6367 93.1094 24.0859 94.6406 24.0859C96.2734 24.0859 97.3945 24.7305 98.0039 26.0195C98.8945 24.7305 100.164 24.0859 101.812 24.0859C103.188 24.0859 104.211 24.4883 104.883 25.293C105.555 26.0898 105.891 27.293 105.891 28.9023V37H102.492V28.9141C102.492 28.1953 102.352 27.6719 102.07 27.3438C101.789 27.0078 101.293 26.8398 100.582 26.8398C99.5664 26.8398 98.8633 27.3242 98.4727 28.293L98.4844 37H95.0977V28.9258C95.0977 28.1914 94.9531 27.6602 94.6641 27.332C94.375 27.0039 93.8828 26.8398 93.1875 26.8398C92.2266 26.8398 91.5312 27.2383 91.1016 28.0352V37H87.7148V24.3203H90.8906ZM115.852 37C115.695 36.6953 115.582 36.3164 115.512 35.8633C114.691 36.7773 113.625 37.2344 112.312 37.2344C111.07 37.2344 110.039 36.875 109.219 36.1562C108.406 35.4375 108 34.5312 108 33.4375C108 32.0938 108.496 31.0625 109.488 30.3438C110.488 29.625 111.93 29.2617 113.812 29.2539H115.371V28.5273C115.371 27.9414 115.219 27.4727 114.914 27.1211C114.617 26.7695 114.145 26.5938 113.496 26.5938C112.926 26.5938 112.477 26.7305 112.148 27.0039C111.828 27.2773 111.668 27.6523 111.668 28.1289H108.281C108.281 27.3945 108.508 26.7148 108.961 26.0898C109.414 25.4648 110.055 24.9766 110.883 24.625C111.711 24.2656 112.641 24.0859 113.672 24.0859C115.234 24.0859 116.473 24.4805 117.387 25.2695C118.309 26.0508 118.77 27.1523 118.77 28.5742V34.0703C118.777 35.2734 118.945 36.1836 119.273 36.8008V37H115.852ZM113.051 34.6445C113.551 34.6445 114.012 34.5352 114.434 34.3164C114.855 34.0898 115.168 33.7891 115.371 33.4141V31.2344H114.105C112.41 31.2344 111.508 31.8203 111.398 32.9922L111.387 33.1914C111.387 33.6133 111.535 33.9609 111.832 34.2344C112.129 34.5078 112.535 34.6445 113.051 34.6445ZM126.645 34.5039C127.27 34.5039 127.777 34.332 128.168 33.9883C128.559 33.6445 128.762 33.1875 128.777 32.6172H131.953C131.945 33.4766 131.711 34.2656 131.25 34.9844C130.789 35.6953 130.156 36.25 129.352 36.6484C128.555 37.0391 127.672 37.2344 126.703 37.2344C124.891 37.2344 123.461 36.6602 122.414 35.5117C121.367 34.3555 120.844 32.7617 120.844 30.7305V30.5078C120.844 28.5547 121.363 26.9961 122.402 25.832C123.441 24.668 124.867 24.0859 126.68 24.0859C128.266 24.0859 129.535 24.5391 130.488 25.4453C131.449 26.3438 131.938 27.543 131.953 29.043H128.777C128.762 28.3867 128.559 27.8555 128.168 27.4492C127.777 27.0352 127.262 26.8281 126.621 26.8281C125.832 26.8281 125.234 27.1172 124.828 27.6953C124.43 28.2656 124.23 29.1953 124.23 30.4844V30.8359C124.23 32.1406 124.43 33.0781 124.828 33.6484C125.227 34.2188 125.832 34.5039 126.645 34.5039ZM137.461 37H134.062V24.3203H137.461V37ZM133.863 21.0391C133.863 20.5312 134.031 20.1133 134.367 19.7852C134.711 19.457 135.176 19.293 135.762 19.293C136.34 19.293 136.801 19.457 137.145 19.7852C137.488 20.1133 137.66 20.5312 137.66 21.0391C137.66 21.5547 137.484 21.9766 137.133 22.3047C136.789 22.6328 136.332 22.7969 135.762 22.7969C135.191 22.7969 134.73 22.6328 134.379 22.3047C134.035 21.9766 133.863 21.5547 133.863 21.0391ZM139.734 30.543C139.734 29.2852 139.977 28.1641 140.461 27.1797C140.945 26.1953 141.641 25.4336 142.547 24.8945C143.461 24.3555 144.52 24.0859 145.723 24.0859C147.434 24.0859 148.828 24.6094 149.906 25.6562C150.992 26.7031 151.598 28.125 151.723 29.9219L151.746 30.7891C151.746 32.7344 151.203 34.2969 150.117 35.4766C149.031 36.6484 147.574 37.2344 145.746 37.2344C143.918 37.2344 142.457 36.6484 141.363 35.4766C140.277 34.3047 139.734 32.7109 139.734 30.6953V30.543ZM143.121 30.7891C143.121 31.9922 143.348 32.9141 143.801 33.5547C144.254 34.1875 144.902 34.5039 145.746 34.5039C146.566 34.5039 147.207 34.1914 147.668 33.5664C148.129 32.9336 148.359 31.9258 148.359 30.543C148.359 29.3633 148.129 28.4492 147.668 27.8008C147.207 27.1523 146.559 26.8281 145.723 26.8281C144.895 26.8281 144.254 27.1523 143.801 27.8008C143.348 28.4414 143.121 29.4375 143.121 30.7891ZM146.391 19H150.082L146.836 22.6328H144.082L146.391 19ZM156.949 24.3203L157.055 25.7852C157.961 24.6523 159.176 24.0859 160.699 24.0859C162.043 24.0859 163.043 24.4805 163.699 25.2695C164.355 26.0586 164.691 27.2383 164.707 28.8086V37H161.32V28.8906C161.32 28.1719 161.164 27.6523 160.852 27.332C160.539 27.0039 160.02 26.8398 159.293 26.8398C158.34 26.8398 157.625 27.2461 157.148 28.0586V37H153.762V24.3203H156.949Z" fill="#808080"/>
<path d="M467.297 29.7539H464.496V36H460.98V18.9375H467.32C469.336 18.9375 470.891 19.3867 471.984 20.2852C473.078 21.1836 473.625 22.4531 473.625 24.0938C473.625 25.2578 473.371 26.2305 472.863 27.0117C472.363 27.7852 471.602 28.4023 470.578 28.8633L474.27 35.8359V36H470.496L467.297 29.7539ZM464.496 26.9062H467.332C468.215 26.9062 468.898 26.6836 469.383 26.2383C469.867 25.7852 470.109 25.1641 470.109 24.375C470.109 23.5703 469.879 22.9375 469.418 22.4766C468.965 22.0156 468.266 21.7852 467.32 21.7852H464.496V26.9062ZM481.922 36.2344C480.062 36.2344 478.547 35.6641 477.375 34.5234C476.211 33.3828 475.629 31.8633 475.629 29.9648V29.6367C475.629 28.3633 475.875 27.2266 476.367 26.2266C476.859 25.2188 477.555 24.4453 478.453 23.9062C479.359 23.3594 480.391 23.0859 481.547 23.0859C483.281 23.0859 484.645 23.6328 485.637 24.7266C486.637 25.8203 487.137 27.3711 487.137 29.3789V30.7617H479.062C479.172 31.5898 479.5 32.2539 480.047 32.7539C480.602 33.2539 481.301 33.5039 482.145 33.5039C483.449 33.5039 484.469 33.0312 485.203 32.0859L486.867 33.9492C486.359 34.668 485.672 35.2305 484.805 35.6367C483.938 36.0352 482.977 36.2344 481.922 36.2344ZM481.535 25.8281C480.863 25.8281 480.316 26.0547 479.895 26.5078C479.48 26.9609 479.215 27.6094 479.098 28.4531H483.809V28.1836C483.793 27.4336 483.59 26.8555 483.199 26.4492C482.809 26.0352 482.254 25.8281 481.535 25.8281ZM493.652 31.8633L496.008 23.3203H499.547L495.27 36H492.035L487.758 23.3203H491.297L493.652 31.8633ZM504.621 36H501.223V23.3203H504.621V36ZM501.023 20.0391C501.023 19.5312 501.191 19.1133 501.527 18.7852C501.871 18.457 502.336 18.293 502.922 18.293C503.5 18.293 503.961 18.457 504.305 18.7852C504.648 19.1133 504.82 19.5312 504.82 20.0391C504.82 20.5547 504.645 20.9766 504.293 21.3047C503.949 21.6328 503.492 21.7969 502.922 21.7969C502.352 21.7969 501.891 21.6328 501.539 21.3047C501.195 20.9766 501.023 20.5547 501.023 20.0391ZM514.289 32.4961C514.289 32.082 514.082 31.7578 513.668 31.5234C513.262 31.2812 512.605 31.0664 511.699 30.8789C508.684 30.2461 507.176 28.9648 507.176 27.0352C507.176 25.9102 507.641 24.9727 508.57 24.2227C509.508 23.4648 510.73 23.0859 512.238 23.0859C513.848 23.0859 515.133 23.4648 516.094 24.2227C517.062 24.9805 517.547 25.9648 517.547 27.1758H514.16C514.16 26.6914 514.004 26.293 513.691 25.9805C513.379 25.6602 512.891 25.5 512.227 25.5C511.656 25.5 511.215 25.6289 510.902 25.8867C510.59 26.1445 510.434 26.4727 510.434 26.8711C510.434 27.2461 510.609 27.5508 510.961 27.7852C511.32 28.0117 511.922 28.2109 512.766 28.3828C513.609 28.5469 514.32 28.7344 514.898 28.9453C516.688 29.6016 517.582 30.7383 517.582 32.3555C517.582 33.5117 517.086 34.4492 516.094 35.168C515.102 35.8789 513.82 36.2344 512.25 36.2344C511.188 36.2344 510.242 36.0469 509.414 35.6719C508.594 35.2891 507.949 34.7695 507.48 34.1133C507.012 33.4492 506.777 32.7344 506.777 31.9688H509.988C510.02 32.5703 510.242 33.0312 510.656 33.3516C511.07 33.6719 511.625 33.832 512.32 33.832C512.969 33.832 513.457 33.7109 513.785 33.4688C514.121 33.2188 514.289 32.8945 514.289 32.4961ZM523.348 36H519.949V23.3203H523.348V36ZM519.75 20.0391C519.75 19.5312 519.918 19.1133 520.254 18.7852C520.598 18.457 521.062 18.293 521.648 18.293C522.227 18.293 522.688 18.457 523.031 18.7852C523.375 19.1133 523.547 19.5312 523.547 20.0391C523.547 20.5547 523.371 20.9766 523.02 21.3047C522.676 21.6328 522.219 21.7969 521.648 21.7969C521.078 21.7969 520.617 21.6328 520.266 21.3047C519.922 20.9766 519.75 20.5547 519.75 20.0391ZM525.621 29.543C525.621 28.2852 525.863 27.1641 526.348 26.1797C526.832 25.1953 527.527 24.4336 528.434 23.8945C529.348 23.3555 530.406 23.0859 531.609 23.0859C533.32 23.0859 534.715 23.6094 535.793 24.6562C536.879 25.7031 537.484 27.125 537.609 28.9219L537.633 29.7891C537.633 31.7344 537.09 33.2969 536.004 34.4766C534.918 35.6484 533.461 36.2344 531.633 36.2344C529.805 36.2344 528.344 35.6484 527.25 34.4766C526.164 33.3047 525.621 31.7109 525.621 29.6953V29.543ZM529.008 29.7891C529.008 30.9922 529.234 31.9141 529.688 32.5547C530.141 33.1875 530.789 33.5039 531.633 33.5039C532.453 33.5039 533.094 33.1914 533.555 32.5664C534.016 31.9336 534.246 30.9258 534.246 29.543C534.246 28.3633 534.016 27.4492 533.555 26.8008C533.094 26.1523 532.445 25.8281 531.609 25.8281C530.781 25.8281 530.141 26.1523 529.688 26.8008C529.234 27.4414 529.008 28.4375 529.008 29.7891ZM532.277 18H535.969L532.723 21.6328H529.969L532.277 18ZM542.836 23.3203L542.941 24.7852C543.848 23.6523 545.062 23.0859 546.586 23.0859C547.93 23.0859 548.93 23.4805 549.586 24.2695C550.242 25.0586 550.578 26.2383 550.594 27.8086V36H547.207V27.8906C547.207 27.1719 547.051 26.6523 546.738 26.332C546.426 26.0039 545.906 25.8398 545.18 25.8398C544.227 25.8398 543.512 26.2461 543.035 27.0586V36H539.648V23.3203H542.836ZM563.883 31.207L566.227 23.3203H569.859L564.762 37.9688L564.48 38.6367C563.723 40.293 562.473 41.1211 560.73 41.1211C560.238 41.1211 559.738 41.0469 559.23 40.8984V38.332L559.746 38.3438C560.387 38.3438 560.863 38.2461 561.176 38.0508C561.496 37.8555 561.746 37.5312 561.926 37.0781L562.324 36.0352L557.883 23.3203H561.527L563.883 31.207ZM588.586 29.7773C588.586 31.7305 588.141 33.2969 587.25 34.4766C586.367 35.6484 585.172 36.2344 583.664 36.2344C582.383 36.2344 581.348 35.7891 580.559 34.8984V40.875H577.172V23.3203H580.312L580.43 24.5625C581.25 23.5781 582.32 23.0859 583.641 23.0859C585.203 23.0859 586.418 23.6641 587.285 24.8203C588.152 25.9766 588.586 27.5703 588.586 29.6016V29.7773ZM585.199 29.5312C585.199 28.3516 584.988 27.4414 584.566 26.8008C584.152 26.1602 583.547 25.8398 582.75 25.8398C581.688 25.8398 580.957 26.2461 580.559 27.0586V32.25C580.973 33.0859 581.711 33.5039 582.773 33.5039C584.391 33.5039 585.199 32.1797 585.199 29.5312ZM598.043 36C597.887 35.6953 597.773 35.3164 597.703 34.8633C596.883 35.7773 595.816 36.2344 594.504 36.2344C593.262 36.2344 592.23 35.875 591.41 35.1562C590.598 34.4375 590.191 33.5312 590.191 32.4375C590.191 31.0938 590.688 30.0625 591.68 29.3438C592.68 28.625 594.121 28.2617 596.004 28.2539H597.562V27.5273C597.562 26.9414 597.41 26.4727 597.105 26.1211C596.809 25.7695 596.336 25.5938 595.688 25.5938C595.117 25.5938 594.668 25.7305 594.34 26.0039C594.02 26.2773 593.859 26.6523 593.859 27.1289H590.473C590.473 26.3945 590.699 25.7148 591.152 25.0898C591.605 24.4648 592.246 23.9766 593.074 23.625C593.902 23.2656 594.832 23.0859 595.863 23.0859C597.426 23.0859 598.664 23.4805 599.578 24.2695C600.5 25.0508 600.961 26.1523 600.961 27.5742V33.0703C600.969 34.2734 601.137 35.1836 601.465 35.8008V36H598.043ZM595.242 33.6445C595.742 33.6445 596.203 33.5352 596.625 33.3164C597.047 33.0898 597.359 32.7891 597.562 32.4141V30.2344H596.297C594.602 30.2344 593.699 30.8203 593.59 31.9922L593.578 32.1914C593.578 32.6133 593.727 32.9609 594.023 33.2344C594.32 33.5078 594.727 33.6445 595.242 33.6445ZM603.07 29.5664C603.07 27.6211 603.531 26.0547 604.453 24.8672C605.383 23.6797 606.633 23.0859 608.203 23.0859C609.594 23.0859 610.676 23.5625 611.449 24.5156L611.59 23.3203H614.66V35.5781C614.66 36.6875 614.406 37.6523 613.898 38.4727C613.398 39.293 612.691 39.918 611.777 40.3477C610.863 40.7773 609.793 40.9922 608.566 40.9922C607.637 40.9922 606.73 40.8047 605.848 40.4297C604.965 40.0625 604.297 39.5859 603.844 39L605.344 36.9375C606.188 37.8828 607.211 38.3555 608.414 38.3555C609.312 38.3555 610.012 38.1133 610.512 37.6289C611.012 37.1523 611.262 36.4727 611.262 35.5898V34.9102C610.48 35.793 609.453 36.2344 608.18 36.2344C606.656 36.2344 605.422 35.6406 604.477 34.4531C603.539 33.2578 603.07 31.6758 603.07 29.707V29.5664ZM606.457 29.8125C606.457 30.9609 606.688 31.8633 607.148 32.5195C607.609 33.168 608.242 33.4922 609.047 33.4922C610.078 33.4922 610.816 33.1055 611.262 32.332V27C610.809 26.2266 610.078 25.8398 609.07 25.8398C608.258 25.8398 607.617 26.1719 607.148 26.8359C606.688 27.5 606.457 28.4922 606.457 29.8125ZM616.746 29.543C616.746 28.2852 616.988 27.1641 617.473 26.1797C617.957 25.1953 618.652 24.4336 619.559 23.8945C620.473 23.3555 621.531 23.0859 622.734 23.0859C624.445 23.0859 625.84 23.6094 626.918 24.6562C628.004 25.7031 628.609 27.125 628.734 28.9219L628.758 29.7891C628.758 31.7344 628.215 33.2969 627.129 34.4766C626.043 35.6484 624.586 36.2344 622.758 36.2344C620.93 36.2344 619.469 35.6484 618.375 34.4766C617.289 33.3047 616.746 31.7109 616.746 29.6953V29.543ZM620.133 29.7891C620.133 30.9922 620.359 31.9141 620.812 32.5547C621.266 33.1875 621.914 33.5039 622.758 33.5039C623.578 33.5039 624.219 33.1914 624.68 32.5664C625.141 31.9336 625.371 30.9258 625.371 29.543C625.371 28.3633 625.141 27.4492 624.68 26.8008C624.219 26.1523 623.57 25.8281 622.734 25.8281C621.906 25.8281 621.266 26.1523 620.812 26.8008C620.359 27.4414 620.133 28.4375 620.133 29.7891Z" fill="#808080"/>
<path d="M288.027 34.4844H281.863L280.691 38H276.953L283.305 20.9375H286.562L292.949 38H289.211L288.027 34.4844ZM282.812 31.6367H287.078L284.934 25.25L282.812 31.6367ZM297.895 38H294.496V20H297.895V38ZM305.969 35.5039C306.594 35.5039 307.102 35.332 307.492 34.9883C307.883 34.6445 308.086 34.1875 308.102 33.6172H311.277C311.27 34.4766 311.035 35.2656 310.574 35.9844C310.113 36.6953 309.48 37.25 308.676 37.6484C307.879 38.0391 306.996 38.2344 306.027 38.2344C304.215 38.2344 302.785 37.6602 301.738 36.5117C300.691 35.3555 300.168 33.7617 300.168 31.7305V31.5078C300.168 29.5547 300.688 27.9961 301.727 26.832C302.766 25.668 304.191 25.0859 306.004 25.0859C307.59 25.0859 308.859 25.5391 309.812 26.4453C310.773 27.3438 311.262 28.543 311.277 30.043H308.102C308.086 29.3867 307.883 28.8555 307.492 28.4492C307.102 28.0352 306.586 27.8281 305.945 27.8281C305.156 27.8281 304.559 28.1172 304.152 28.6953C303.754 29.2656 303.555 30.1953 303.555 31.4844V31.8359C303.555 33.1406 303.754 34.0781 304.152 34.6484C304.551 35.2188 305.156 35.5039 305.969 35.5039ZM320.559 38C320.402 37.6953 320.289 37.3164 320.219 36.8633C319.398 37.7773 318.332 38.2344 317.02 38.2344C315.777 38.2344 314.746 37.875 313.926 37.1562C313.113 36.4375 312.707 35.5312 312.707 34.4375C312.707 33.0938 313.203 32.0625 314.195 31.3438C315.195 30.625 316.637 30.2617 318.52 30.2539H320.078V29.5273C320.078 28.9414 319.926 28.4727 319.621 28.1211C319.324 27.7695 318.852 27.5938 318.203 27.5938C317.633 27.5938 317.184 27.7305 316.855 28.0039C316.535 28.2773 316.375 28.6523 316.375 29.1289H312.988C312.988 28.3945 313.215 27.7148 313.668 27.0898C314.121 26.4648 314.762 25.9766 315.59 25.625C316.418 25.2656 317.348 25.0859 318.379 25.0859C319.941 25.0859 321.18 25.4805 322.094 26.2695C323.016 27.0508 323.477 28.1523 323.477 29.5742V35.0703C323.484 36.2734 323.652 37.1836 323.98 37.8008V38H320.559ZM317.758 35.6445C318.258 35.6445 318.719 35.5352 319.141 35.3164C319.562 35.0898 319.875 34.7891 320.078 34.4141V32.2344H318.812C317.117 32.2344 316.215 32.8203 316.105 33.9922L316.094 34.1914C316.094 34.6133 316.242 34.9609 316.539 35.2344C316.836 35.5078 317.242 35.6445 317.758 35.6445ZM329.652 38H326.254V20H329.652V38ZM331.926 31.5664C331.926 29.5898 332.367 28.0156 333.25 26.8438C334.141 25.6719 335.355 25.0859 336.895 25.0859C338.129 25.0859 339.148 25.5469 339.953 26.4688V20H343.352V38H340.293L340.129 36.6523C339.285 37.707 338.199 38.2344 336.871 38.2344C335.379 38.2344 334.18 37.6484 333.273 36.4766C332.375 35.2969 331.926 33.6602 331.926 31.5664ZM335.312 31.8125C335.312 33 335.52 33.9102 335.934 34.543C336.348 35.1758 336.949 35.4922 337.738 35.4922C338.785 35.4922 339.523 35.0508 339.953 34.168V29.1641C339.531 28.2812 338.801 27.8398 337.762 27.8398C336.129 27.8398 335.312 29.1641 335.312 31.8125ZM349.633 38H346.246V25.3203H349.633V38ZM348.637 20.1758H352.328L349.082 23.8086H346.328L348.637 20.1758ZM359.91 38C359.754 37.6953 359.641 37.3164 359.57 36.8633C358.75 37.7773 357.684 38.2344 356.371 38.2344C355.129 38.2344 354.098 37.875 353.277 37.1562C352.465 36.4375 352.059 35.5312 352.059 34.4375C352.059 33.0938 352.555 32.0625 353.547 31.3438C354.547 30.625 355.988 30.2617 357.871 30.2539H359.43V29.5273C359.43 28.9414 359.277 28.4727 358.973 28.1211C358.676 27.7695 358.203 27.5938 357.555 27.5938C356.984 27.5938 356.535 27.7305 356.207 28.0039C355.887 28.2773 355.727 28.6523 355.727 29.1289H352.34C352.34 28.3945 352.566 27.7148 353.02 27.0898C353.473 26.4648 354.113 25.9766 354.941 25.625C355.77 25.2656 356.699 25.0859 357.73 25.0859C359.293 25.0859 360.531 25.4805 361.445 26.2695C362.367 27.0508 362.828 28.1523 362.828 29.5742V35.0703C362.836 36.2734 363.004 37.1836 363.332 37.8008V38H359.91ZM357.109 35.6445C357.609 35.6445 358.07 35.5352 358.492 35.3164C358.914 35.0898 359.227 34.7891 359.43 34.4141V32.2344H358.164C356.469 32.2344 355.566 32.8203 355.457 33.9922L355.445 34.1914C355.445 34.6133 355.594 34.9609 355.891 35.2344C356.188 35.5078 356.594 35.6445 357.109 35.6445Z" fill="#FFC700"/>
</svg>
