<svg width="645" height="519" viewBox="0 0 645 519" fill="none" xmlns="http://www.w3.org/2000/svg">
<path d="M342 438C342 425.85 351.858 416 364.008 416C427.744 416 471.256 416 534.992 416C547.142 416 557 425.85 557 438V438C557 450.15 547.15 460 535 460H364C351.85 460 342 450.15 342 438V438Z" fill="#FFC700"/>
<path d="M408.508 438.395C406.578 437.84 405.172 437.16 404.289 436.355C403.414 435.543 402.977 434.543 402.977 433.355C402.977 432.012 403.512 430.902 404.582 430.027C405.66 429.145 407.059 428.703 408.777 428.703C409.949 428.703 410.992 428.93 411.906 429.383C412.828 429.836 413.539 430.461 414.039 431.258C414.547 432.055 414.801 432.926 414.801 433.871H412.539C412.539 432.84 412.211 432.031 411.555 431.445C410.898 430.852 409.973 430.555 408.777 430.555C407.668 430.555 406.801 430.801 406.176 431.293C405.559 431.777 405.25 432.453 405.25 433.32C405.25 434.016 405.543 434.605 406.129 435.09C406.723 435.566 407.727 436.004 409.141 436.402C410.562 436.801 411.672 437.242 412.469 437.727C413.273 438.203 413.867 438.762 414.25 439.402C414.641 440.043 414.836 440.797 414.836 441.664C414.836 443.047 414.297 444.156 413.219 444.992C412.141 445.82 410.699 446.234 408.895 446.234C407.723 446.234 406.629 446.012 405.613 445.566C404.598 445.113 403.812 444.496 403.258 443.715C402.711 442.934 402.438 442.047 402.438 441.055H404.699C404.699 442.086 405.078 442.902 405.836 443.504C406.602 444.098 407.621 444.395 408.895 444.395C410.082 444.395 410.992 444.152 411.625 443.668C412.258 443.184 412.574 442.523 412.574 441.688C412.574 440.852 412.281 440.207 411.695 439.754C411.109 439.293 410.047 438.84 408.508 438.395ZM419.746 446H417.578V433.32H419.746V446ZM417.402 429.957C417.402 429.605 417.508 429.309 417.719 429.066C417.938 428.824 418.258 428.703 418.68 428.703C419.102 428.703 419.422 428.824 419.641 429.066C419.859 429.309 419.969 429.605 419.969 429.957C419.969 430.309 419.859 430.602 419.641 430.836C419.422 431.07 419.102 431.188 418.68 431.188C418.258 431.188 417.938 431.07 417.719 430.836C417.508 430.602 417.402 430.309 417.402 429.957ZM422.711 439.555C422.711 437.578 423.168 436.008 424.082 434.844C424.996 433.672 426.207 433.086 427.715 433.086C429.262 433.086 430.469 433.633 431.336 434.727L431.441 433.32H433.422V445.695C433.422 447.336 432.934 448.629 431.957 449.574C430.988 450.52 429.684 450.992 428.043 450.992C427.129 450.992 426.234 450.797 425.359 450.406C424.484 450.016 423.816 449.48 423.355 448.801L424.48 447.5C425.41 448.648 426.547 449.223 427.891 449.223C428.945 449.223 429.766 448.926 430.352 448.332C430.945 447.738 431.242 446.902 431.242 445.824V444.734C430.375 445.734 429.191 446.234 427.691 446.234C426.207 446.234 425.004 445.637 424.082 444.441C423.168 443.246 422.711 441.617 422.711 439.555ZM424.891 439.801C424.891 441.23 425.184 442.355 425.77 443.176C426.355 443.988 427.176 444.395 428.23 444.395C429.598 444.395 430.602 443.773 431.242 442.531V436.742C430.578 435.531 429.582 434.926 428.254 434.926C427.199 434.926 426.375 435.336 425.781 436.156C425.188 436.977 424.891 438.191 424.891 439.801ZM444.531 444.746C443.688 445.738 442.449 446.234 440.816 446.234C439.465 446.234 438.434 445.844 437.723 445.062C437.02 444.273 436.664 443.109 436.656 441.57V433.32H438.824V441.512C438.824 443.434 439.605 444.395 441.168 444.395C442.824 444.395 443.926 443.777 444.473 442.543V433.32H446.641V446H444.578L444.531 444.746ZM452.301 446H450.133V433.32H452.301V446ZM449.957 429.957C449.957 429.605 450.062 429.309 450.273 429.066C450.492 428.824 450.812 428.703 451.234 428.703C451.656 428.703 451.977 428.824 452.195 429.066C452.414 429.309 452.523 429.605 452.523 429.957C452.523 430.309 452.414 430.602 452.195 430.836C451.977 431.07 451.656 431.188 451.234 431.188C450.812 431.188 450.492 431.07 450.273 430.836C450.062 430.602 449.957 430.309 449.957 429.957ZM461.043 446.234C459.324 446.234 457.926 445.672 456.848 444.547C455.77 443.414 455.23 441.902 455.23 440.012V439.613C455.23 438.355 455.469 437.234 455.945 436.25C456.43 435.258 457.102 434.484 457.961 433.93C458.828 433.367 459.766 433.086 460.773 433.086C462.422 433.086 463.703 433.629 464.617 434.715C465.531 435.801 465.988 437.355 465.988 439.379V440.281H457.398C457.43 441.531 457.793 442.543 458.488 443.316C459.191 444.082 460.082 444.465 461.16 444.465C461.926 444.465 462.574 444.309 463.105 443.996C463.637 443.684 464.102 443.27 464.5 442.754L465.824 443.785C464.762 445.418 463.168 446.234 461.043 446.234ZM460.773 434.867C459.898 434.867 459.164 435.188 458.57 435.828C457.977 436.461 457.609 437.352 457.469 438.5H463.82V438.336C463.758 437.234 463.461 436.383 462.93 435.781C462.398 435.172 461.68 434.867 460.773 434.867ZM470.559 433.32L470.629 434.914C471.598 433.695 472.863 433.086 474.426 433.086C477.105 433.086 478.457 434.598 478.48 437.621V446H476.312V437.609C476.305 436.695 476.094 436.02 475.68 435.582C475.273 435.145 474.637 434.926 473.77 434.926C473.066 434.926 472.449 435.113 471.918 435.488C471.387 435.863 470.973 436.355 470.676 436.965V446H468.508V433.32H470.559ZM484.691 430.25V433.32H487.059V434.996H484.691V442.859C484.691 443.367 484.797 443.75 485.008 444.008C485.219 444.258 485.578 444.383 486.086 444.383C486.336 444.383 486.68 444.336 487.117 444.242V446C486.547 446.156 485.992 446.234 485.453 446.234C484.484 446.234 483.754 445.941 483.262 445.355C482.77 444.77 482.523 443.938 482.523 442.859V434.996H480.215V433.32H482.523V430.25H484.691ZM494.863 446.234C493.145 446.234 491.746 445.672 490.668 444.547C489.59 443.414 489.051 441.902 489.051 440.012V439.613C489.051 438.355 489.289 437.234 489.766 436.25C490.25 435.258 490.922 434.484 491.781 433.93C492.648 433.367 493.586 433.086 494.594 433.086C496.242 433.086 497.523 433.629 498.438 434.715C499.352 435.801 499.809 437.355 499.809 439.379V440.281H491.219C491.25 441.531 491.613 442.543 492.309 443.316C493.012 444.082 493.902 444.465 494.98 444.465C495.746 444.465 496.395 444.309 496.926 443.996C497.457 443.684 497.922 443.27 498.32 442.754L499.645 443.785C498.582 445.418 496.988 446.234 494.863 446.234ZM494.594 434.867C493.719 434.867 492.984 435.188 492.391 435.828C491.797 436.461 491.43 437.352 491.289 438.5H497.641V438.336C497.578 437.234 497.281 436.383 496.75 435.781C496.219 435.172 495.5 434.867 494.594 434.867Z" fill="white"/>
<path d="M88 438C88 425.85 97.8497 416 110 416H281C293.15 416 303 425.85 303 438V438C303 450.15 293.15 460 281 460H110C97.8497 460 88 450.15 88 438V438Z" fill="#020062"/>
<path d="M162.531 440.586C162.32 442.391 161.652 443.785 160.527 444.77C159.41 445.746 157.922 446.234 156.062 446.234C154.047 446.234 152.43 445.512 151.211 444.066C150 442.621 149.395 440.688 149.395 438.266V436.625C149.395 435.039 149.676 433.645 150.238 432.441C150.809 431.238 151.613 430.316 152.652 429.676C153.691 429.027 154.895 428.703 156.262 428.703C158.074 428.703 159.527 429.211 160.621 430.227C161.715 431.234 162.352 432.633 162.531 434.422H160.27C160.074 433.062 159.648 432.078 158.992 431.469C158.344 430.859 157.434 430.555 156.262 430.555C154.824 430.555 153.695 431.086 152.875 432.148C152.062 433.211 151.656 434.723 151.656 436.684V438.336C151.656 440.188 152.043 441.66 152.816 442.754C153.59 443.848 154.672 444.395 156.062 444.395C157.312 444.395 158.27 444.113 158.934 443.551C159.605 442.98 160.051 441.992 160.27 440.586H162.531ZM173.102 446C172.977 445.75 172.875 445.305 172.797 444.664C171.789 445.711 170.586 446.234 169.188 446.234C167.938 446.234 166.91 445.883 166.105 445.18C165.309 444.469 164.91 443.57 164.91 442.484C164.91 441.164 165.41 440.141 166.41 439.414C167.418 438.68 168.832 438.312 170.652 438.312H172.762V437.316C172.762 436.559 172.535 435.957 172.082 435.512C171.629 435.059 170.961 434.832 170.078 434.832C169.305 434.832 168.656 435.027 168.133 435.418C167.609 435.809 167.348 436.281 167.348 436.836H165.168C165.168 436.203 165.391 435.594 165.836 435.008C166.289 434.414 166.898 433.945 167.664 433.602C168.438 433.258 169.285 433.086 170.207 433.086C171.668 433.086 172.812 433.453 173.641 434.188C174.469 434.914 174.898 435.918 174.93 437.199V443.035C174.93 444.199 175.078 445.125 175.375 445.812V446H173.102ZM169.504 444.348C170.184 444.348 170.828 444.172 171.438 443.82C172.047 443.469 172.488 443.012 172.762 442.449V439.848H171.062C168.406 439.848 167.078 440.625 167.078 442.18C167.078 442.859 167.305 443.391 167.758 443.773C168.211 444.156 168.793 444.348 169.504 444.348ZM180.379 433.32L180.449 434.914C181.418 433.695 182.684 433.086 184.246 433.086C186.926 433.086 188.277 434.598 188.301 437.621V446H186.133V437.609C186.125 436.695 185.914 436.02 185.5 435.582C185.094 435.145 184.457 434.926 183.59 434.926C182.887 434.926 182.27 435.113 181.738 435.488C181.207 435.863 180.793 436.355 180.496 436.965V446H178.328V433.32H180.379ZM196.656 444.465C197.43 444.465 198.105 444.23 198.684 443.762C199.262 443.293 199.582 442.707 199.645 442.004H201.695C201.656 442.73 201.406 443.422 200.945 444.078C200.484 444.734 199.867 445.258 199.094 445.648C198.328 446.039 197.516 446.234 196.656 446.234C194.93 446.234 193.555 445.66 192.531 444.512C191.516 443.355 191.008 441.777 191.008 439.777V439.414C191.008 438.18 191.234 437.082 191.688 436.121C192.141 435.16 192.789 434.414 193.633 433.883C194.484 433.352 195.488 433.086 196.645 433.086C198.066 433.086 199.246 433.512 200.184 434.363C201.129 435.215 201.633 436.32 201.695 437.68H199.645C199.582 436.859 199.27 436.188 198.707 435.664C198.152 435.133 197.465 434.867 196.645 434.867C195.543 434.867 194.688 435.266 194.078 436.062C193.477 436.852 193.176 437.996 193.176 439.496V439.906C193.176 441.367 193.477 442.492 194.078 443.281C194.68 444.07 195.539 444.465 196.656 444.465ZM209.395 446.234C207.676 446.234 206.277 445.672 205.199 444.547C204.121 443.414 203.582 441.902 203.582 440.012V439.613C203.582 438.355 203.82 437.234 204.297 436.25C204.781 435.258 205.453 434.484 206.312 433.93C207.18 433.367 208.117 433.086 209.125 433.086C210.773 433.086 212.055 433.629 212.969 434.715C213.883 435.801 214.34 437.355 214.34 439.379V440.281H205.75C205.781 441.531 206.145 442.543 206.84 443.316C207.543 444.082 208.434 444.465 209.512 444.465C210.277 444.465 210.926 444.309 211.457 443.996C211.988 443.684 212.453 443.27 212.852 442.754L214.176 443.785C213.113 445.418 211.52 446.234 209.395 446.234ZM209.125 434.867C208.25 434.867 207.516 435.188 206.922 435.828C206.328 436.461 205.961 437.352 205.82 438.5H212.172V438.336C212.109 437.234 211.812 436.383 211.281 435.781C210.75 435.172 210.031 434.867 209.125 434.867ZM219.215 446H217.047V428H219.215V446ZM230.523 446C230.398 445.75 230.297 445.305 230.219 444.664C229.211 445.711 228.008 446.234 226.609 446.234C225.359 446.234 224.332 445.883 223.527 445.18C222.73 444.469 222.332 443.57 222.332 442.484C222.332 441.164 222.832 440.141 223.832 439.414C224.84 438.68 226.254 438.312 228.074 438.312H230.184V437.316C230.184 436.559 229.957 435.957 229.504 435.512C229.051 435.059 228.383 434.832 227.5 434.832C226.727 434.832 226.078 435.027 225.555 435.418C225.031 435.809 224.77 436.281 224.77 436.836H222.59C222.59 436.203 222.812 435.594 223.258 435.008C223.711 434.414 224.32 433.945 225.086 433.602C225.859 433.258 226.707 433.086 227.629 433.086C229.09 433.086 230.234 433.453 231.062 434.188C231.891 434.914 232.32 435.918 232.352 437.199V443.035C232.352 444.199 232.5 445.125 232.797 445.812V446H230.523ZM226.926 444.348C227.605 444.348 228.25 444.172 228.859 443.82C229.469 443.469 229.91 443.012 230.184 442.449V439.848H228.484C225.828 439.848 224.5 440.625 224.5 442.18C224.5 442.859 224.727 443.391 225.18 443.773C225.633 444.156 226.215 444.348 226.926 444.348ZM241.879 435.266C241.551 435.211 241.195 435.184 240.812 435.184C239.391 435.184 238.426 435.789 237.918 437V446H235.75V433.32H237.859L237.895 434.785C238.605 433.652 239.613 433.086 240.918 433.086C241.34 433.086 241.66 433.141 241.879 433.25V435.266Z" fill="white"/>
<path d="M79 315C79 310.582 82.5817 307 87 307H336C340.418 307 344 310.582 344 315V352C344 356.418 340.418 360 336 360H87C82.5817 360 79 356.418 79 352V315Z" fill="#E5E5E5"/>
<path d="M104.398 334.816C104.398 337.27 103.938 339.121 103.016 340.371C102.102 341.613 100.707 342.234 98.832 342.234C96.9883 342.234 95.5977 341.629 94.6602 340.418C93.7305 339.199 93.2539 337.398 93.2305 335.016V332.062C93.2305 329.609 93.6875 327.77 94.6016 326.543C95.5234 325.316 96.9258 324.703 98.8086 324.703C100.676 324.703 102.066 325.301 102.98 326.496C103.902 327.691 104.375 329.48 104.398 331.863V334.816ZM101.551 331.629C101.551 330.027 101.332 328.855 100.895 328.113C100.457 327.363 99.7617 326.988 98.8086 326.988C97.8789 326.988 97.1953 327.344 96.7578 328.055C96.3203 328.758 96.0898 329.859 96.0664 331.359V335.227C96.0664 336.82 96.2891 338.008 96.7344 338.789C97.1797 339.57 97.8789 339.961 98.832 339.961C99.7461 339.961 100.422 339.602 100.859 338.883C101.297 338.156 101.527 337.023 101.551 335.484V331.629Z" fill="#808080"/>
<path d="M114.629 342H111.793V328.301L107.609 329.73V327.328L114.266 324.879H114.629V342Z" fill="#808080"/>
<path d="M132.031 342H120.559V340.043L126.242 333.844C127.062 332.93 127.645 332.168 127.988 331.559C128.34 330.941 128.516 330.324 128.516 329.707C128.516 328.895 128.285 328.238 127.824 327.738C127.371 327.238 126.758 326.988 125.984 326.988C125.062 326.988 124.348 327.27 123.84 327.832C123.332 328.395 123.078 329.164 123.078 330.141H120.23C120.23 329.102 120.465 328.168 120.934 327.34C121.41 326.504 122.086 325.855 122.961 325.395C123.844 324.934 124.859 324.703 126.008 324.703C127.664 324.703 128.969 325.121 129.922 325.957C130.883 326.785 131.363 327.934 131.363 329.402C131.363 330.254 131.121 331.148 130.637 332.086C130.16 333.016 129.375 334.074 128.281 335.262L124.109 339.727H132.031V342Z" fill="#808080"/>
<path d="M137.492 332.168H139.227C140.102 332.16 140.793 331.934 141.301 331.488C141.816 331.043 142.074 330.398 142.074 329.555C142.074 328.742 141.859 328.113 141.43 327.668C141.008 327.215 140.359 326.988 139.484 326.988C138.719 326.988 138.09 327.211 137.598 327.656C137.105 328.094 136.859 328.668 136.859 329.379H134.012C134.012 328.504 134.242 327.707 134.703 326.988C135.172 326.27 135.82 325.711 136.648 325.312C137.484 324.906 138.418 324.703 139.449 324.703C141.152 324.703 142.488 325.133 143.457 325.992C144.434 326.844 144.922 328.031 144.922 329.555C144.922 330.32 144.676 331.043 144.184 331.723C143.699 332.395 143.07 332.902 142.297 333.246C143.234 333.566 143.945 334.07 144.43 334.758C144.922 335.445 145.168 336.266 145.168 337.219C145.168 338.75 144.641 339.969 143.586 340.875C142.539 341.781 141.16 342.234 139.449 342.234C137.809 342.234 136.465 341.797 135.418 340.922C134.371 340.047 133.848 338.883 133.848 337.43H136.695C136.695 338.18 136.945 338.789 137.445 339.258C137.953 339.727 138.633 339.961 139.484 339.961C140.367 339.961 141.062 339.727 141.57 339.258C142.078 338.789 142.332 338.109 142.332 337.219C142.332 336.32 142.066 335.629 141.535 335.145C141.004 334.66 140.215 334.418 139.168 334.418H137.492V332.168Z" fill="#808080"/>
<path d="M157.473 335.918H159.594V338.203H157.473V342H154.625V338.203H147.254L147.172 336.469L154.531 324.938H157.473V335.918ZM150.16 335.918H154.625V328.793L154.414 329.168L150.16 335.918Z" fill="#808080"/>
<path d="M162.242 333.539L163.168 324.938H172.332V327.398H165.535L165.066 331.477C165.855 331.023 166.746 330.797 167.738 330.797C169.363 330.797 170.625 331.316 171.523 332.355C172.43 333.395 172.883 334.793 172.883 336.551C172.883 338.285 172.383 339.668 171.383 340.699C170.383 341.723 169.012 342.234 167.27 342.234C165.707 342.234 164.41 341.793 163.379 340.91C162.355 340.02 161.801 338.848 161.715 337.395H164.469C164.578 338.223 164.875 338.859 165.359 339.305C165.844 339.742 166.477 339.961 167.258 339.961C168.133 339.961 168.812 339.648 169.297 339.023C169.789 338.398 170.035 337.547 170.035 336.469C170.035 335.43 169.766 334.609 169.227 334.008C168.688 333.398 167.945 333.094 167 333.094C166.484 333.094 166.047 333.164 165.688 333.305C165.328 333.438 164.938 333.703 164.516 334.102L162.242 333.539Z" fill="#808080"/>
<path d="M183.98 324.855V327.211H183.629C182.035 327.234 180.762 327.672 179.809 328.523C178.855 329.375 178.289 330.582 178.109 332.145C179.023 331.184 180.191 330.703 181.613 330.703C183.121 330.703 184.309 331.234 185.176 332.297C186.051 333.359 186.488 334.73 186.488 336.41C186.488 338.145 185.977 339.551 184.953 340.629C183.938 341.699 182.602 342.234 180.945 342.234C179.242 342.234 177.859 341.605 176.797 340.348C175.742 339.09 175.215 337.441 175.215 335.402V334.43C175.215 331.438 175.941 329.094 177.395 327.398C178.855 325.703 180.953 324.855 183.688 324.855H183.98ZM180.922 333C180.297 333 179.723 333.176 179.199 333.527C178.684 333.879 178.305 334.348 178.062 334.934V335.801C178.062 337.066 178.328 338.074 178.859 338.824C179.391 339.566 180.078 339.938 180.922 339.938C181.766 339.938 182.434 339.621 182.926 338.988C183.418 338.355 183.664 337.523 183.664 336.492C183.664 335.461 183.414 334.621 182.914 333.973C182.414 333.324 181.75 333 180.922 333Z" fill="#808080"/>
<path d="M200.117 326.52L193.297 342H190.309L197.117 327.223H188.293V324.938H200.117V326.52Z" fill="#808080"/>
<path d="M213.148 329.438C213.148 330.273 212.934 331.02 212.504 331.676C212.074 332.324 211.488 332.836 210.746 333.211C211.637 333.625 212.32 334.191 212.797 334.91C213.281 335.629 213.523 336.441 213.523 337.348C213.523 338.848 213.016 340.039 212 340.922C210.984 341.797 209.633 342.234 207.945 342.234C206.25 342.234 204.891 341.793 203.867 340.91C202.852 340.027 202.344 338.84 202.344 337.348C202.344 336.434 202.586 335.613 203.07 334.887C203.555 334.16 204.234 333.602 205.109 333.211C204.375 332.836 203.793 332.324 203.363 331.676C202.941 331.02 202.73 330.273 202.73 329.438C202.73 327.984 203.199 326.832 204.137 325.98C205.074 325.129 206.34 324.703 207.934 324.703C209.535 324.703 210.805 325.129 211.742 325.98C212.68 326.832 213.148 327.984 213.148 329.438ZM210.676 337.207C210.676 336.363 210.422 335.684 209.914 335.168C209.414 334.645 208.75 334.383 207.922 334.383C207.094 334.383 206.43 334.641 205.93 335.156C205.438 335.672 205.191 336.355 205.191 337.207C205.191 338.043 205.434 338.711 205.918 339.211C206.41 339.711 207.086 339.961 207.945 339.961C208.805 339.961 209.473 339.719 209.949 339.234C210.434 338.75 210.676 338.074 210.676 337.207ZM210.312 329.543C210.312 328.801 210.098 328.191 209.668 327.715C209.238 327.23 208.66 326.988 207.934 326.988C207.207 326.988 206.633 327.219 206.211 327.68C205.789 328.133 205.578 328.754 205.578 329.543C205.578 330.324 205.789 330.945 206.211 331.406C206.641 331.867 207.219 332.098 207.945 332.098C208.672 332.098 209.246 331.867 209.668 331.406C210.098 330.945 210.312 330.324 210.312 329.543Z" fill="#808080"/>
<path d="M224.117 334.863C223.164 335.871 222.051 336.375 220.777 336.375C219.277 336.375 218.082 335.852 217.191 334.805C216.301 333.75 215.855 332.367 215.855 330.656C215.855 329.531 216.082 328.512 216.535 327.598C216.988 326.684 217.633 325.973 218.469 325.465C219.305 324.957 220.273 324.703 221.375 324.703C223.094 324.703 224.457 325.344 225.465 326.625C226.473 327.906 226.977 329.621 226.977 331.77V332.566C226.977 335.645 226.281 337.992 224.891 339.609C223.5 341.227 221.426 342.047 218.668 342.07H218.328V339.715H218.738C220.418 339.691 221.707 339.289 222.605 338.508C223.504 337.719 224.008 336.504 224.117 334.863ZM221.375 334.148C221.945 334.148 222.48 333.984 222.98 333.656C223.48 333.328 223.867 332.875 224.141 332.297V331.184C224.141 329.926 223.883 328.914 223.367 328.148C222.852 327.383 222.184 327 221.363 327C220.543 327 219.887 327.34 219.395 328.02C218.91 328.691 218.668 329.543 218.668 330.574C218.668 331.645 218.914 332.508 219.406 333.164C219.898 333.82 220.555 334.148 221.375 334.148Z" fill="#808080"/>
<path d="M78 147C78 142.582 81.5817 139 86 139H533C537.418 139 541 142.582 541 147V184C541 188.418 537.418 192 533 192H86C81.5817 192 78 188.418 78 184V147Z" fill="#E5E5E5"/>
<path d="M96.8438 157.938L101.766 171.016L106.676 157.938H110.508V175H107.555V169.375L107.848 161.852L102.809 175H100.688L95.6602 161.863L95.9531 169.375V175H93V157.938H96.8438Z" fill="#808080"/>
<path d="M121.324 175C121.199 174.758 121.09 174.363 120.996 173.816C120.09 174.762 118.98 175.234 117.668 175.234C116.395 175.234 115.355 174.871 114.551 174.145C113.746 173.418 113.344 172.52 113.344 171.449C113.344 170.098 113.844 169.062 114.844 168.344C115.852 167.617 117.289 167.254 119.156 167.254H120.902V166.422C120.902 165.766 120.719 165.242 120.352 164.852C119.984 164.453 119.426 164.254 118.676 164.254C118.027 164.254 117.496 164.418 117.082 164.746C116.668 165.066 116.461 165.477 116.461 165.977H113.613C113.613 165.281 113.844 164.633 114.305 164.031C114.766 163.422 115.391 162.945 116.18 162.602C116.977 162.258 117.863 162.086 118.84 162.086C120.324 162.086 121.508 162.461 122.391 163.211C123.273 163.953 123.727 165 123.75 166.352V172.07C123.75 173.211 123.91 174.121 124.23 174.801V175H121.324ZM118.195 172.949C118.758 172.949 119.285 172.812 119.777 172.539C120.277 172.266 120.652 171.898 120.902 171.438V169.047H119.367C118.312 169.047 117.52 169.23 116.988 169.598C116.457 169.965 116.191 170.484 116.191 171.156C116.191 171.703 116.371 172.141 116.73 172.469C117.098 172.789 117.586 172.949 118.195 172.949Z" fill="#808080"/>
<path d="M133.371 164.922C132.996 164.859 132.609 164.828 132.211 164.828C130.906 164.828 130.027 165.328 129.574 166.328V175H126.727V162.32H129.445L129.516 163.738C130.203 162.637 131.156 162.086 132.375 162.086C132.781 162.086 133.117 162.141 133.383 162.25L133.371 164.922Z" fill="#808080"/>
<path d="M140.145 172.961C140.855 172.961 141.445 172.754 141.914 172.34C142.383 171.926 142.633 171.414 142.664 170.805H145.348C145.316 171.594 145.07 172.332 144.609 173.02C144.148 173.699 143.523 174.238 142.734 174.637C141.945 175.035 141.094 175.234 140.18 175.234C138.406 175.234 137 174.66 135.961 173.512C134.922 172.363 134.402 170.777 134.402 168.754V168.461C134.402 166.531 134.918 164.988 135.949 163.832C136.98 162.668 138.387 162.086 140.168 162.086C141.676 162.086 142.902 162.527 143.848 163.41C144.801 164.285 145.301 165.438 145.348 166.867H142.664C142.633 166.141 142.383 165.543 141.914 165.074C141.453 164.605 140.863 164.371 140.145 164.371C139.223 164.371 138.512 164.707 138.012 165.379C137.512 166.043 137.258 167.055 137.25 168.414V168.871C137.25 170.246 137.496 171.273 137.988 171.953C138.488 172.625 139.207 172.961 140.145 172.961Z" fill="#808080"/>
<path d="M153.082 175.234C151.277 175.234 149.812 174.668 148.688 173.535C147.57 172.395 147.012 170.879 147.012 168.988V168.637C147.012 167.371 147.254 166.242 147.738 165.25C148.23 164.25 148.918 163.473 149.801 162.918C150.684 162.363 151.668 162.086 152.754 162.086C154.48 162.086 155.812 162.637 156.75 163.738C157.695 164.84 158.168 166.398 158.168 168.414V169.562H149.883C149.969 170.609 150.316 171.438 150.926 172.047C151.543 172.656 152.316 172.961 153.246 172.961C154.551 172.961 155.613 172.434 156.434 171.379L157.969 172.844C157.461 173.602 156.781 174.191 155.93 174.613C155.086 175.027 154.137 175.234 153.082 175.234ZM152.742 164.371C151.961 164.371 151.328 164.645 150.844 165.191C150.367 165.738 150.062 166.5 149.93 167.477H155.355V167.266C155.293 166.312 155.039 165.594 154.594 165.109C154.148 164.617 153.531 164.371 152.742 164.371Z" fill="#808080"/>
<path d="M163.418 175H160.57V157H163.418V175Z" fill="#808080"/>
<path d="M174.105 175C173.98 174.758 173.871 174.363 173.777 173.816C172.871 174.762 171.762 175.234 170.449 175.234C169.176 175.234 168.137 174.871 167.332 174.145C166.527 173.418 166.125 172.52 166.125 171.449C166.125 170.098 166.625 169.062 167.625 168.344C168.633 167.617 170.07 167.254 171.938 167.254H173.684V166.422C173.684 165.766 173.5 165.242 173.133 164.852C172.766 164.453 172.207 164.254 171.457 164.254C170.809 164.254 170.277 164.418 169.863 164.746C169.449 165.066 169.242 165.477 169.242 165.977H166.395C166.395 165.281 166.625 164.633 167.086 164.031C167.547 163.422 168.172 162.945 168.961 162.602C169.758 162.258 170.645 162.086 171.621 162.086C173.105 162.086 174.289 162.461 175.172 163.211C176.055 163.953 176.508 165 176.531 166.352V172.07C176.531 173.211 176.691 174.121 177.012 174.801V175H174.105ZM170.977 172.949C171.539 172.949 172.066 172.812 172.559 172.539C173.059 172.266 173.434 171.898 173.684 171.438V169.047H172.148C171.094 169.047 170.301 169.23 169.77 169.598C169.238 169.965 168.973 170.484 168.973 171.156C168.973 171.703 169.152 172.141 169.512 172.469C169.879 172.789 170.367 172.949 170.977 172.949Z" fill="#808080"/>
<path d="M189.609 157.938L194.531 171.016L199.441 157.938H203.273V175H200.32V169.375L200.613 161.852L195.574 175H193.453L188.426 161.863L188.719 169.375V175H185.766V157.938H189.609Z" fill="#808080"/>
<path d="M205.98 168.543C205.98 167.301 206.227 166.184 206.719 165.191C207.211 164.191 207.902 163.426 208.793 162.895C209.684 162.355 210.707 162.086 211.863 162.086C213.574 162.086 214.961 162.637 216.023 163.738C217.094 164.84 217.672 166.301 217.758 168.121L217.77 168.789C217.77 170.039 217.527 171.156 217.043 172.141C216.566 173.125 215.879 173.887 214.98 174.426C214.09 174.965 213.059 175.234 211.887 175.234C210.098 175.234 208.664 174.641 207.586 173.453C206.516 172.258 205.98 170.668 205.98 168.684V168.543ZM208.828 168.789C208.828 170.094 209.098 171.117 209.637 171.859C210.176 172.594 210.926 172.961 211.887 172.961C212.848 172.961 213.594 172.586 214.125 171.836C214.664 171.086 214.934 169.988 214.934 168.543C214.934 167.262 214.656 166.246 214.102 165.496C213.555 164.746 212.809 164.371 211.863 164.371C210.934 164.371 210.195 164.742 209.648 165.484C209.102 166.219 208.828 167.32 208.828 168.789Z" fill="#808080"/>
<path d="M223.207 175H220.359V157H223.207V175Z" fill="#808080"/>
<path d="M229.348 175H226.5V162.32H229.348V175ZM226.324 159.027C226.324 158.59 226.461 158.227 226.734 157.938C227.016 157.648 227.414 157.504 227.93 157.504C228.445 157.504 228.844 157.648 229.125 157.938C229.406 158.227 229.547 158.59 229.547 159.027C229.547 159.457 229.406 159.816 229.125 160.105C228.844 160.387 228.445 160.527 227.93 160.527C227.414 160.527 227.016 160.387 226.734 160.105C226.461 159.816 226.324 159.457 226.324 159.027Z" fill="#808080"/>
<path d="M235.102 162.32L235.184 163.785C236.121 162.652 237.352 162.086 238.875 162.086C241.516 162.086 242.859 163.598 242.906 166.621V175H240.059V166.785C240.059 165.98 239.883 165.387 239.531 165.004C239.188 164.613 238.621 164.418 237.832 164.418C236.684 164.418 235.828 164.938 235.266 165.977V175H232.418V162.32H235.102Z" fill="#808080"/>
<path d="M253.395 175C253.27 174.758 253.16 174.363 253.066 173.816C252.16 174.762 251.051 175.234 249.738 175.234C248.465 175.234 247.426 174.871 246.621 174.145C245.816 173.418 245.414 172.52 245.414 171.449C245.414 170.098 245.914 169.062 246.914 168.344C247.922 167.617 249.359 167.254 251.227 167.254H252.973V166.422C252.973 165.766 252.789 165.242 252.422 164.852C252.055 164.453 251.496 164.254 250.746 164.254C250.098 164.254 249.566 164.418 249.152 164.746C248.738 165.066 248.531 165.477 248.531 165.977H245.684C245.684 165.281 245.914 164.633 246.375 164.031C246.836 163.422 247.461 162.945 248.25 162.602C249.047 162.258 249.934 162.086 250.91 162.086C252.395 162.086 253.578 162.461 254.461 163.211C255.344 163.953 255.797 165 255.82 166.352V172.07C255.82 173.211 255.98 174.121 256.301 174.801V175H253.395ZM250.266 172.949C250.828 172.949 251.355 172.812 251.848 172.539C252.348 172.266 252.723 171.898 252.973 171.438V169.047H251.438C250.383 169.047 249.59 169.23 249.059 169.598C248.527 169.965 248.262 170.484 248.262 171.156C248.262 171.703 248.441 172.141 248.801 172.469C249.168 172.789 249.656 172.949 250.266 172.949Z" fill="#808080"/>
<path d="M550.891 149.609L547.316 148.578L547.961 146.598L551.5 147.969L551.324 143.938H553.422L553.246 148.039L556.727 146.691L557.359 148.707L553.727 149.738L556.07 152.855L554.371 154.098L552.262 150.723L550.176 153.992L548.465 152.797L550.891 149.609Z" fill="#1CB4F5"/>
<path d="M79 227C79 222.582 82.5817 219 87 219H336C340.418 219 344 222.582 344 227V264C344 268.418 340.418 272 336 272H87C82.5817 272 79 268.418 79 264V227Z" fill="#E5E5E5"/>
<path d="M104.75 253H93.2773V251.043L98.9609 244.844C99.7812 243.93 100.363 243.168 100.707 242.559C101.059 241.941 101.234 241.324 101.234 240.707C101.234 239.895 101.004 239.238 100.543 238.738C100.09 238.238 99.4766 237.988 98.7031 237.988C97.7812 237.988 97.0664 238.27 96.5586 238.832C96.0508 239.395 95.7969 240.164 95.7969 241.141H92.9492C92.9492 240.102 93.1836 239.168 93.6523 238.34C94.1289 237.504 94.8047 236.855 95.6797 236.395C96.5625 235.934 97.5781 235.703 98.7266 235.703C100.383 235.703 101.688 236.121 102.641 236.957C103.602 237.785 104.082 238.934 104.082 240.402C104.082 241.254 103.84 242.148 103.355 243.086C102.879 244.016 102.094 245.074 101 246.262L96.8281 250.727H104.75V253Z" fill="#808080"/>
<path d="M116.551 246.918H118.672V249.203H116.551V253H113.703V249.203H106.332L106.25 247.469L113.609 235.938H116.551V246.918ZM109.238 246.918H113.703V239.793L113.492 240.168L109.238 246.918Z" fill="#808080"/>
<path d="M121.543 254.465H119.305L126.02 235.938H128.258L121.543 254.465Z" fill="#808080"/>
<path d="M141.172 245.816C141.172 248.27 140.711 250.121 139.789 251.371C138.875 252.613 137.48 253.234 135.605 253.234C133.762 253.234 132.371 252.629 131.434 251.418C130.504 250.199 130.027 248.398 130.004 246.016V243.062C130.004 240.609 130.461 238.77 131.375 237.543C132.297 236.316 133.699 235.703 135.582 235.703C137.449 235.703 138.84 236.301 139.754 237.496C140.676 238.691 141.148 240.48 141.172 242.863V245.816ZM138.324 242.629C138.324 241.027 138.105 239.855 137.668 239.113C137.23 238.363 136.535 237.988 135.582 237.988C134.652 237.988 133.969 238.344 133.531 239.055C133.094 239.758 132.863 240.859 132.84 242.359V246.227C132.84 247.82 133.062 249.008 133.508 249.789C133.953 250.57 134.652 250.961 135.605 250.961C136.52 250.961 137.195 250.602 137.633 249.883C138.07 249.156 138.301 248.023 138.324 246.484V242.629Z" fill="#808080"/>
<path d="M154.438 240.438C154.438 241.273 154.223 242.02 153.793 242.676C153.363 243.324 152.777 243.836 152.035 244.211C152.926 244.625 153.609 245.191 154.086 245.91C154.57 246.629 154.812 247.441 154.812 248.348C154.812 249.848 154.305 251.039 153.289 251.922C152.273 252.797 150.922 253.234 149.234 253.234C147.539 253.234 146.18 252.793 145.156 251.91C144.141 251.027 143.633 249.84 143.633 248.348C143.633 247.434 143.875 246.613 144.359 245.887C144.844 245.16 145.523 244.602 146.398 244.211C145.664 243.836 145.082 243.324 144.652 242.676C144.23 242.02 144.02 241.273 144.02 240.438C144.02 238.984 144.488 237.832 145.426 236.98C146.363 236.129 147.629 235.703 149.223 235.703C150.824 235.703 152.094 236.129 153.031 236.98C153.969 237.832 154.438 238.984 154.438 240.438ZM151.965 248.207C151.965 247.363 151.711 246.684 151.203 246.168C150.703 245.645 150.039 245.383 149.211 245.383C148.383 245.383 147.719 245.641 147.219 246.156C146.727 246.672 146.48 247.355 146.48 248.207C146.48 249.043 146.723 249.711 147.207 250.211C147.699 250.711 148.375 250.961 149.234 250.961C150.094 250.961 150.762 250.719 151.238 250.234C151.723 249.75 151.965 249.074 151.965 248.207ZM151.602 240.543C151.602 239.801 151.387 239.191 150.957 238.715C150.527 238.23 149.949 237.988 149.223 237.988C148.496 237.988 147.922 238.219 147.5 238.68C147.078 239.133 146.867 239.754 146.867 240.543C146.867 241.324 147.078 241.945 147.5 242.406C147.93 242.867 148.508 243.098 149.234 243.098C149.961 243.098 150.535 242.867 150.957 242.406C151.387 241.945 151.602 241.324 151.602 240.543Z" fill="#808080"/>
<path d="M158.316 254.465H156.078L162.793 235.938H165.031L158.316 254.465Z" fill="#808080"/>
<path d="M174.535 253H171.699V239.301L167.516 240.73V238.328L174.172 235.879H174.535V253Z" fill="#808080"/>
<path d="M188.539 245.863C187.586 246.871 186.473 247.375 185.199 247.375C183.699 247.375 182.504 246.852 181.613 245.805C180.723 244.75 180.277 243.367 180.277 241.656C180.277 240.531 180.504 239.512 180.957 238.598C181.41 237.684 182.055 236.973 182.891 236.465C183.727 235.957 184.695 235.703 185.797 235.703C187.516 235.703 188.879 236.344 189.887 237.625C190.895 238.906 191.398 240.621 191.398 242.77V243.566C191.398 246.645 190.703 248.992 189.312 250.609C187.922 252.227 185.848 253.047 183.09 253.07H182.75V250.715H183.16C184.84 250.691 186.129 250.289 187.027 249.508C187.926 248.719 188.43 247.504 188.539 245.863ZM185.797 245.148C186.367 245.148 186.902 244.984 187.402 244.656C187.902 244.328 188.289 243.875 188.562 243.297V242.184C188.562 240.926 188.305 239.914 187.789 239.148C187.273 238.383 186.605 238 185.785 238C184.965 238 184.309 238.34 183.816 239.02C183.332 239.691 183.09 240.543 183.09 241.574C183.09 242.645 183.336 243.508 183.828 244.164C184.32 244.82 184.977 245.148 185.797 245.148Z" fill="#808080"/>
<path d="M202.18 245.863C201.227 246.871 200.113 247.375 198.84 247.375C197.34 247.375 196.145 246.852 195.254 245.805C194.363 244.75 193.918 243.367 193.918 241.656C193.918 240.531 194.145 239.512 194.598 238.598C195.051 237.684 195.695 236.973 196.531 236.465C197.367 235.957 198.336 235.703 199.438 235.703C201.156 235.703 202.52 236.344 203.527 237.625C204.535 238.906 205.039 240.621 205.039 242.77V243.566C205.039 246.645 204.344 248.992 202.953 250.609C201.562 252.227 199.488 253.047 196.73 253.07H196.391V250.715H196.801C198.48 250.691 199.77 250.289 200.668 249.508C201.566 248.719 202.07 247.504 202.18 245.863ZM199.438 245.148C200.008 245.148 200.543 244.984 201.043 244.656C201.543 244.328 201.93 243.875 202.203 243.297V242.184C202.203 240.926 201.945 239.914 201.43 239.148C200.914 238.383 200.246 238 199.426 238C198.605 238 197.949 238.34 197.457 239.02C196.973 239.691 196.73 240.543 196.73 241.574C196.73 242.645 196.977 243.508 197.469 244.164C197.961 244.82 198.617 245.148 199.438 245.148Z" fill="#808080"/>
<path d="M216.605 235.855V238.211H216.254C214.66 238.234 213.387 238.672 212.434 239.523C211.48 240.375 210.914 241.582 210.734 243.145C211.648 242.184 212.816 241.703 214.238 241.703C215.746 241.703 216.934 242.234 217.801 243.297C218.676 244.359 219.113 245.73 219.113 247.41C219.113 249.145 218.602 250.551 217.578 251.629C216.562 252.699 215.227 253.234 213.57 253.234C211.867 253.234 210.484 252.605 209.422 251.348C208.367 250.09 207.84 248.441 207.84 246.402V245.43C207.84 242.438 208.566 240.094 210.02 238.398C211.48 236.703 213.578 235.855 216.312 235.855H216.605ZM213.547 244C212.922 244 212.348 244.176 211.824 244.527C211.309 244.879 210.93 245.348 210.688 245.934V246.801C210.688 248.066 210.953 249.074 211.484 249.824C212.016 250.566 212.703 250.938 213.547 250.938C214.391 250.938 215.059 250.621 215.551 249.988C216.043 249.355 216.289 248.523 216.289 247.492C216.289 246.461 216.039 245.621 215.539 244.973C215.039 244.324 214.375 244 213.547 244Z" fill="#808080"/>
<path d="M354.891 229.609L351.316 228.578L351.961 226.598L355.5 227.969L355.324 223.938H357.422L357.246 228.039L360.727 226.691L361.359 228.707L357.727 229.738L360.07 232.855L358.371 234.098L356.262 230.723L354.176 233.992L352.465 232.797L354.891 229.609Z" fill="#1CB4F5"/>
<path d="M354.891 317.609L351.316 316.578L351.961 314.598L355.5 315.969L355.324 311.938H357.422L357.246 316.039L360.727 314.691L361.359 316.707L357.727 317.738L360.07 320.855L358.371 322.098L356.262 318.723L354.176 321.992L352.465 320.797L354.891 317.609Z" fill="#1CB4F5"/>
<path d="M237.418 514V496.938H242.457C243.965 496.938 245.301 497.273 246.465 497.945C247.637 498.617 248.543 499.57 249.184 500.805C249.824 502.039 250.145 503.453 250.145 505.047V505.902C250.145 507.52 249.82 508.941 249.172 510.168C248.531 511.395 247.613 512.34 246.418 513.004C245.23 513.668 243.867 514 242.328 514H237.418ZM240.383 499.328V511.633H242.316C243.871 511.633 245.062 511.148 245.891 510.18C246.727 509.203 247.152 507.805 247.168 505.984V505.035C247.168 503.184 246.766 501.77 245.961 500.793C245.156 499.816 243.988 499.328 242.457 499.328H240.383Z" fill="#808080"/>
<path d="M260.398 514C260.273 513.758 260.164 513.363 260.07 512.816C259.164 513.762 258.055 514.234 256.742 514.234C255.469 514.234 254.43 513.871 253.625 513.145C252.82 512.418 252.418 511.52 252.418 510.449C252.418 509.098 252.918 508.062 253.918 507.344C254.926 506.617 256.363 506.254 258.23 506.254H259.977V505.422C259.977 504.766 259.793 504.242 259.426 503.852C259.059 503.453 258.5 503.254 257.75 503.254C257.102 503.254 256.57 503.418 256.156 503.746C255.742 504.066 255.535 504.477 255.535 504.977H252.688C252.688 504.281 252.918 503.633 253.379 503.031C253.84 502.422 254.465 501.945 255.254 501.602C256.051 501.258 256.938 501.086 257.914 501.086C259.398 501.086 260.582 501.461 261.465 502.211C262.348 502.953 262.801 504 262.824 505.352V511.07C262.824 512.211 262.984 513.121 263.305 513.801V514H260.398ZM257.27 511.949C257.832 511.949 258.359 511.812 258.852 511.539C259.352 511.266 259.727 510.898 259.977 510.438V508.047H258.441C257.387 508.047 256.594 508.23 256.062 508.598C255.531 508.965 255.266 509.484 255.266 510.156C255.266 510.703 255.445 511.141 255.805 511.469C256.172 511.789 256.66 511.949 257.27 511.949Z" fill="#808080"/>
<path d="M269.375 498.238V501.32H271.613V503.43H269.375V510.508C269.375 510.992 269.469 511.344 269.656 511.562C269.852 511.773 270.195 511.879 270.688 511.879C271.016 511.879 271.348 511.84 271.684 511.762V513.965C271.035 514.145 270.41 514.234 269.809 514.234C267.621 514.234 266.527 513.027 266.527 510.613V503.43H264.441V501.32H266.527V498.238H269.375Z" fill="#808080"/>
<path d="M272.914 507.543C272.914 506.301 273.16 505.184 273.652 504.191C274.145 503.191 274.836 502.426 275.727 501.895C276.617 501.355 277.641 501.086 278.797 501.086C280.508 501.086 281.895 501.637 282.957 502.738C284.027 503.84 284.605 505.301 284.691 507.121L284.703 507.789C284.703 509.039 284.461 510.156 283.977 511.141C283.5 512.125 282.812 512.887 281.914 513.426C281.023 513.965 279.992 514.234 278.82 514.234C277.031 514.234 275.598 513.641 274.52 512.453C273.449 511.258 272.914 509.668 272.914 507.684V507.543ZM275.762 507.789C275.762 509.094 276.031 510.117 276.57 510.859C277.109 511.594 277.859 511.961 278.82 511.961C279.781 511.961 280.527 511.586 281.059 510.836C281.598 510.086 281.867 508.988 281.867 507.543C281.867 506.262 281.59 505.246 281.035 504.496C280.488 503.746 279.742 503.371 278.797 503.371C277.867 503.371 277.129 503.742 276.582 504.484C276.035 505.219 275.762 506.32 275.762 507.789Z" fill="#808080"/>
<path d="M294.219 510.555C294.219 510.047 294.008 509.66 293.586 509.395C293.172 509.129 292.48 508.895 291.512 508.691C290.543 508.488 289.734 508.23 289.086 507.918C287.664 507.23 286.953 506.234 286.953 504.93C286.953 503.836 287.414 502.922 288.336 502.188C289.258 501.453 290.43 501.086 291.852 501.086C293.367 501.086 294.59 501.461 295.52 502.211C296.457 502.961 296.926 503.934 296.926 505.129H294.078C294.078 504.582 293.875 504.129 293.469 503.77C293.062 503.402 292.523 503.219 291.852 503.219C291.227 503.219 290.715 503.363 290.316 503.652C289.926 503.941 289.73 504.328 289.73 504.812C289.73 505.25 289.914 505.59 290.281 505.832C290.648 506.074 291.391 506.32 292.508 506.57C293.625 506.812 294.5 507.105 295.133 507.449C295.773 507.785 296.246 508.191 296.551 508.668C296.863 509.145 297.02 509.723 297.02 510.402C297.02 511.543 296.547 512.469 295.602 513.18C294.656 513.883 293.418 514.234 291.887 514.234C290.848 514.234 289.922 514.047 289.109 513.672C288.297 513.297 287.664 512.781 287.211 512.125C286.758 511.469 286.531 510.762 286.531 510.004H289.297C289.336 510.676 289.59 511.195 290.059 511.562C290.527 511.922 291.148 512.102 291.922 512.102C292.672 512.102 293.242 511.961 293.633 511.68C294.023 511.391 294.219 511.016 294.219 510.555Z" fill="#808080"/>
<path d="M304.953 507.543C304.953 506.301 305.199 505.184 305.691 504.191C306.184 503.191 306.875 502.426 307.766 501.895C308.656 501.355 309.68 501.086 310.836 501.086C312.547 501.086 313.934 501.637 314.996 502.738C316.066 503.84 316.645 505.301 316.73 507.121L316.742 507.789C316.742 509.039 316.5 510.156 316.016 511.141C315.539 512.125 314.852 512.887 313.953 513.426C313.062 513.965 312.031 514.234 310.859 514.234C309.07 514.234 307.637 513.641 306.559 512.453C305.488 511.258 304.953 509.668 304.953 507.684V507.543ZM307.801 507.789C307.801 509.094 308.07 510.117 308.609 510.859C309.148 511.594 309.898 511.961 310.859 511.961C311.82 511.961 312.566 511.586 313.098 510.836C313.637 510.086 313.906 508.988 313.906 507.543C313.906 506.262 313.629 505.246 313.074 504.496C312.527 503.746 311.781 503.371 310.836 503.371C309.906 503.371 309.168 503.742 308.621 504.484C308.074 505.219 307.801 506.32 307.801 507.789Z" fill="#808080"/>
<path d="M330.277 507.789C330.277 509.758 329.836 511.324 328.953 512.488C328.078 513.652 326.871 514.234 325.332 514.234C323.848 514.234 322.691 513.699 321.863 512.629L321.723 514H319.145V496H321.992V502.539C322.812 501.57 323.918 501.086 325.309 501.086C326.855 501.086 328.07 501.66 328.953 502.809C329.836 503.957 330.277 505.562 330.277 507.625V507.789ZM327.43 507.543C327.43 506.168 327.188 505.137 326.703 504.449C326.219 503.762 325.516 503.418 324.594 503.418C323.359 503.418 322.492 503.957 321.992 505.035V510.262C322.5 511.363 323.375 511.914 324.617 511.914C325.508 511.914 326.195 511.582 326.68 510.918C327.164 510.254 327.414 509.25 327.43 507.906V507.543Z" fill="#808080"/>
<path d="M335.703 514H332.855V496H335.703V514Z" fill="#808080"/>
<path d="M341.844 514H338.996V501.32H341.844V514ZM338.82 498.027C338.82 497.59 338.957 497.227 339.23 496.938C339.512 496.648 339.91 496.504 340.426 496.504C340.941 496.504 341.34 496.648 341.621 496.938C341.902 497.227 342.043 497.59 342.043 498.027C342.043 498.457 341.902 498.816 341.621 499.105C341.34 499.387 340.941 499.527 340.426 499.527C339.91 499.527 339.512 499.387 339.23 499.105C338.957 498.816 338.82 498.457 338.82 498.027Z" fill="#808080"/>
<path d="M344.457 507.566C344.457 505.598 344.918 504.027 345.84 502.855C346.77 501.676 348 501.086 349.531 501.086C350.977 501.086 352.113 501.59 352.941 502.598L353.07 501.32H355.637V513.613C355.637 515.277 355.117 516.59 354.078 517.551C353.047 518.512 351.652 518.992 349.895 518.992C348.965 518.992 348.055 518.797 347.164 518.406C346.281 518.023 345.609 517.52 345.148 516.895L346.496 515.184C347.371 516.223 348.449 516.742 349.73 516.742C350.676 516.742 351.422 516.484 351.969 515.969C352.516 515.461 352.789 514.711 352.789 513.719V512.863C351.969 513.777 350.875 514.234 349.508 514.234C348.023 514.234 346.809 513.645 345.863 512.465C344.926 511.285 344.457 509.652 344.457 507.566ZM347.293 507.812C347.293 509.086 347.551 510.09 348.066 510.824C348.59 511.551 349.312 511.914 350.234 511.914C351.383 511.914 352.234 511.422 352.789 510.438V504.859C352.25 503.898 351.406 503.418 350.258 503.418C349.32 503.418 348.59 503.789 348.066 504.531C347.551 505.273 347.293 506.367 347.293 507.812Z" fill="#808080"/>
<path d="M366.148 514C366.023 513.758 365.914 513.363 365.82 512.816C364.914 513.762 363.805 514.234 362.492 514.234C361.219 514.234 360.18 513.871 359.375 513.145C358.57 512.418 358.168 511.52 358.168 510.449C358.168 509.098 358.668 508.062 359.668 507.344C360.676 506.617 362.113 506.254 363.98 506.254H365.727V505.422C365.727 504.766 365.543 504.242 365.176 503.852C364.809 503.453 364.25 503.254 363.5 503.254C362.852 503.254 362.32 503.418 361.906 503.746C361.492 504.066 361.285 504.477 361.285 504.977H358.438C358.438 504.281 358.668 503.633 359.129 503.031C359.59 502.422 360.215 501.945 361.004 501.602C361.801 501.258 362.688 501.086 363.664 501.086C365.148 501.086 366.332 501.461 367.215 502.211C368.098 502.953 368.551 504 368.574 505.352V511.07C368.574 512.211 368.734 513.121 369.055 513.801V514H366.148ZM363.02 511.949C363.582 511.949 364.109 511.812 364.602 511.539C365.102 511.266 365.477 510.898 365.727 510.438V508.047H364.191C363.137 508.047 362.344 508.23 361.812 508.598C361.281 508.965 361.016 509.484 361.016 510.156C361.016 510.703 361.195 511.141 361.555 511.469C361.922 511.789 362.41 511.949 363.02 511.949Z" fill="#808080"/>
<path d="M375.125 498.238V501.32H377.363V503.43H375.125V510.508C375.125 510.992 375.219 511.344 375.406 511.562C375.602 511.773 375.945 511.879 376.438 511.879C376.766 511.879 377.098 511.84 377.434 511.762V513.965C376.785 514.145 376.16 514.234 375.559 514.234C373.371 514.234 372.277 513.027 372.277 510.613V503.43H370.191V501.32H372.277V498.238H375.125Z" fill="#808080"/>
<path d="M378.664 507.543C378.664 506.301 378.91 505.184 379.402 504.191C379.895 503.191 380.586 502.426 381.477 501.895C382.367 501.355 383.391 501.086 384.547 501.086C386.258 501.086 387.645 501.637 388.707 502.738C389.777 503.84 390.355 505.301 390.441 507.121L390.453 507.789C390.453 509.039 390.211 510.156 389.727 511.141C389.25 512.125 388.562 512.887 387.664 513.426C386.773 513.965 385.742 514.234 384.57 514.234C382.781 514.234 381.348 513.641 380.27 512.453C379.199 511.258 378.664 509.668 378.664 507.684V507.543ZM381.512 507.789C381.512 509.094 381.781 510.117 382.32 510.859C382.859 511.594 383.609 511.961 384.57 511.961C385.531 511.961 386.277 511.586 386.809 510.836C387.348 510.086 387.617 508.988 387.617 507.543C387.617 506.262 387.34 505.246 386.785 504.496C386.238 503.746 385.492 503.371 384.547 503.371C383.617 503.371 382.879 503.742 382.332 504.484C381.785 505.219 381.512 506.32 381.512 507.789Z" fill="#808080"/>
<path d="M399.5 503.922C399.125 503.859 398.738 503.828 398.34 503.828C397.035 503.828 396.156 504.328 395.703 505.328V514H392.855V501.32H395.574L395.645 502.738C396.332 501.637 397.285 501.086 398.504 501.086C398.91 501.086 399.246 501.141 399.512 501.25L399.5 503.922Z" fill="#808080"/>
<path d="M404.328 514H401.48V501.32H404.328V514ZM401.305 498.027C401.305 497.59 401.441 497.227 401.715 496.938C401.996 496.648 402.395 496.504 402.91 496.504C403.426 496.504 403.824 496.648 404.105 496.938C404.387 497.227 404.527 497.59 404.527 498.027C404.527 498.457 404.387 498.816 404.105 499.105C403.824 499.387 403.426 499.527 402.91 499.527C402.395 499.527 401.996 499.387 401.715 499.105C401.441 498.816 401.305 498.457 401.305 498.027Z" fill="#808080"/>
<path d="M406.906 507.543C406.906 506.301 407.152 505.184 407.645 504.191C408.137 503.191 408.828 502.426 409.719 501.895C410.609 501.355 411.633 501.086 412.789 501.086C414.5 501.086 415.887 501.637 416.949 502.738C418.02 503.84 418.598 505.301 418.684 507.121L418.695 507.789C418.695 509.039 418.453 510.156 417.969 511.141C417.492 512.125 416.805 512.887 415.906 513.426C415.016 513.965 413.984 514.234 412.812 514.234C411.023 514.234 409.59 513.641 408.512 512.453C407.441 511.258 406.906 509.668 406.906 507.684V507.543ZM409.754 507.789C409.754 509.094 410.023 510.117 410.562 510.859C411.102 511.594 411.852 511.961 412.812 511.961C413.773 511.961 414.52 511.586 415.051 510.836C415.59 510.086 415.859 508.988 415.859 507.543C415.859 506.262 415.582 505.246 415.027 504.496C414.48 503.746 413.734 503.371 412.789 503.371C411.859 503.371 411.121 503.742 410.574 504.484C410.027 505.219 409.754 506.32 409.754 507.789Z" fill="#808080"/>
<path d="M428.211 510.555C428.211 510.047 428 509.66 427.578 509.395C427.164 509.129 426.473 508.895 425.504 508.691C424.535 508.488 423.727 508.23 423.078 507.918C421.656 507.23 420.945 506.234 420.945 504.93C420.945 503.836 421.406 502.922 422.328 502.188C423.25 501.453 424.422 501.086 425.844 501.086C427.359 501.086 428.582 501.461 429.512 502.211C430.449 502.961 430.918 503.934 430.918 505.129H428.07C428.07 504.582 427.867 504.129 427.461 503.77C427.055 503.402 426.516 503.219 425.844 503.219C425.219 503.219 424.707 503.363 424.309 503.652C423.918 503.941 423.723 504.328 423.723 504.812C423.723 505.25 423.906 505.59 424.273 505.832C424.641 506.074 425.383 506.32 426.5 506.57C427.617 506.812 428.492 507.105 429.125 507.449C429.766 507.785 430.238 508.191 430.543 508.668C430.855 509.145 431.012 509.723 431.012 510.402C431.012 511.543 430.539 512.469 429.594 513.18C428.648 513.883 427.41 514.234 425.879 514.234C424.84 514.234 423.914 514.047 423.102 513.672C422.289 513.297 421.656 512.781 421.203 512.125C420.75 511.469 420.523 510.762 420.523 510.004H423.289C423.328 510.676 423.582 511.195 424.051 511.562C424.52 511.922 425.141 512.102 425.914 512.102C426.664 512.102 427.234 511.961 427.625 511.68C428.016 511.391 428.211 511.016 428.211 510.555Z" fill="#808080"/>
<path d="M215.574 507.609L212 506.578L212.645 504.598L216.184 505.969L216.008 501.938H218.105L217.93 506.039L221.41 504.691L222.043 506.707L218.41 507.738L220.754 510.855L219.055 512.098L216.945 508.723L214.859 511.992L213.148 510.797L215.574 507.609Z" fill="#1CB4F5"/>
<rect x="444" width="201" height="59" rx="8" fill="#E5E5E5"/>
<rect width="201" height="59" rx="8" fill="#020062"/>
<rect x="220" width="201" height="59" rx="8" fill="#E5E5E5"/>
<path d="M40.2773 37H36.7617V19.9375H40.2773V37ZM46.4414 24.3203L46.5469 25.7852C47.4531 24.6523 48.668 24.0859 50.1914 24.0859C51.5352 24.0859 52.5352 24.4805 53.1914 25.2695C53.8477 26.0586 54.1836 27.2383 54.1992 28.8086V37H50.8125V28.8906C50.8125 28.1719 50.6562 27.6523 50.3438 27.332C50.0312 27.0039 49.5117 26.8398 48.7852 26.8398C47.832 26.8398 47.1172 27.2461 46.6406 28.0586V37H43.2539V24.3203H46.4414ZM57.7031 37V26.8047H55.8164V24.3203H57.7031V23.2422C57.7031 21.8203 58.1094 20.7188 58.9219 19.9375C59.7422 19.1484 60.8867 18.7539 62.3555 18.7539C62.8242 18.7539 63.3984 18.832 64.0781 18.9883L64.043 21.6133C63.7617 21.543 63.418 21.5078 63.0117 21.5078C61.7383 21.5078 61.1016 22.1055 61.1016 23.3008V24.3203H63.6211V26.8047H61.1016V37H57.7031ZM64.8516 30.543C64.8516 29.2852 65.0938 28.1641 65.5781 27.1797C66.0625 26.1953 66.7578 25.4336 67.6641 24.8945C68.5781 24.3555 69.6367 24.0859 70.8398 24.0859C72.5508 24.0859 73.9453 24.6094 75.0234 25.6562C76.1094 26.7031 76.7148 28.125 76.8398 29.9219L76.8633 30.7891C76.8633 32.7344 76.3203 34.2969 75.2344 35.4766C74.1484 36.6484 72.6914 37.2344 70.8633 37.2344C69.0352 37.2344 67.5742 36.6484 66.4805 35.4766C65.3945 34.3047 64.8516 32.7109 64.8516 30.6953V30.543ZM68.2383 30.7891C68.2383 31.9922 68.4648 32.9141 68.918 33.5547C69.3711 34.1875 70.0195 34.5039 70.8633 34.5039C71.6836 34.5039 72.3242 34.1914 72.7852 33.5664C73.2461 32.9336 73.4766 31.9258 73.4766 30.543C73.4766 29.3633 73.2461 28.4492 72.7852 27.8008C72.3242 27.1523 71.6758 26.8281 70.8398 26.8281C70.0117 26.8281 69.3711 27.1523 68.918 27.8008C68.4648 28.4414 68.2383 29.4375 68.2383 30.7891ZM86.0742 27.4961C85.6133 27.4336 85.207 27.4023 84.8555 27.4023C83.5742 27.4023 82.7344 27.8359 82.3359 28.7031V37H78.9492V24.3203H82.1484L82.2422 25.832C82.9219 24.668 83.8633 24.0859 85.0664 24.0859C85.4414 24.0859 85.793 24.1367 86.1211 24.2383L86.0742 27.4961ZM90.8906 24.3203L90.9961 25.7383C91.8945 24.6367 93.1094 24.0859 94.6406 24.0859C96.2734 24.0859 97.3945 24.7305 98.0039 26.0195C98.8945 24.7305 100.164 24.0859 101.812 24.0859C103.188 24.0859 104.211 24.4883 104.883 25.293C105.555 26.0898 105.891 27.293 105.891 28.9023V37H102.492V28.9141C102.492 28.1953 102.352 27.6719 102.07 27.3438C101.789 27.0078 101.293 26.8398 100.582 26.8398C99.5664 26.8398 98.8633 27.3242 98.4727 28.293L98.4844 37H95.0977V28.9258C95.0977 28.1914 94.9531 27.6602 94.6641 27.332C94.375 27.0039 93.8828 26.8398 93.1875 26.8398C92.2266 26.8398 91.5312 27.2383 91.1016 28.0352V37H87.7148V24.3203H90.8906ZM115.852 37C115.695 36.6953 115.582 36.3164 115.512 35.8633C114.691 36.7773 113.625 37.2344 112.312 37.2344C111.07 37.2344 110.039 36.875 109.219 36.1562C108.406 35.4375 108 34.5312 108 33.4375C108 32.0938 108.496 31.0625 109.488 30.3438C110.488 29.625 111.93 29.2617 113.812 29.2539H115.371V28.5273C115.371 27.9414 115.219 27.4727 114.914 27.1211C114.617 26.7695 114.145 26.5938 113.496 26.5938C112.926 26.5938 112.477 26.7305 112.148 27.0039C111.828 27.2773 111.668 27.6523 111.668 28.1289H108.281C108.281 27.3945 108.508 26.7148 108.961 26.0898C109.414 25.4648 110.055 24.9766 110.883 24.625C111.711 24.2656 112.641 24.0859 113.672 24.0859C115.234 24.0859 116.473 24.4805 117.387 25.2695C118.309 26.0508 118.77 27.1523 118.77 28.5742V34.0703C118.777 35.2734 118.945 36.1836 119.273 36.8008V37H115.852ZM113.051 34.6445C113.551 34.6445 114.012 34.5352 114.434 34.3164C114.855 34.0898 115.168 33.7891 115.371 33.4141V31.2344H114.105C112.41 31.2344 111.508 31.8203 111.398 32.9922L111.387 33.1914C111.387 33.6133 111.535 33.9609 111.832 34.2344C112.129 34.5078 112.535 34.6445 113.051 34.6445ZM126.645 34.5039C127.27 34.5039 127.777 34.332 128.168 33.9883C128.559 33.6445 128.762 33.1875 128.777 32.6172H131.953C131.945 33.4766 131.711 34.2656 131.25 34.9844C130.789 35.6953 130.156 36.25 129.352 36.6484C128.555 37.0391 127.672 37.2344 126.703 37.2344C124.891 37.2344 123.461 36.6602 122.414 35.5117C121.367 34.3555 120.844 32.7617 120.844 30.7305V30.5078C120.844 28.5547 121.363 26.9961 122.402 25.832C123.441 24.668 124.867 24.0859 126.68 24.0859C128.266 24.0859 129.535 24.5391 130.488 25.4453C131.449 26.3438 131.938 27.543 131.953 29.043H128.777C128.762 28.3867 128.559 27.8555 128.168 27.4492C127.777 27.0352 127.262 26.8281 126.621 26.8281C125.832 26.8281 125.234 27.1172 124.828 27.6953C124.43 28.2656 124.23 29.1953 124.23 30.4844V30.8359C124.23 32.1406 124.43 33.0781 124.828 33.6484C125.227 34.2188 125.832 34.5039 126.645 34.5039ZM137.461 37H134.062V24.3203H137.461V37ZM133.863 21.0391C133.863 20.5312 134.031 20.1133 134.367 19.7852C134.711 19.457 135.176 19.293 135.762 19.293C136.34 19.293 136.801 19.457 137.145 19.7852C137.488 20.1133 137.66 20.5312 137.66 21.0391C137.66 21.5547 137.484 21.9766 137.133 22.3047C136.789 22.6328 136.332 22.7969 135.762 22.7969C135.191 22.7969 134.73 22.6328 134.379 22.3047C134.035 21.9766 133.863 21.5547 133.863 21.0391ZM139.734 30.543C139.734 29.2852 139.977 28.1641 140.461 27.1797C140.945 26.1953 141.641 25.4336 142.547 24.8945C143.461 24.3555 144.52 24.0859 145.723 24.0859C147.434 24.0859 148.828 24.6094 149.906 25.6562C150.992 26.7031 151.598 28.125 151.723 29.9219L151.746 30.7891C151.746 32.7344 151.203 34.2969 150.117 35.4766C149.031 36.6484 147.574 37.2344 145.746 37.2344C143.918 37.2344 142.457 36.6484 141.363 35.4766C140.277 34.3047 139.734 32.7109 139.734 30.6953V30.543ZM143.121 30.7891C143.121 31.9922 143.348 32.9141 143.801 33.5547C144.254 34.1875 144.902 34.5039 145.746 34.5039C146.566 34.5039 147.207 34.1914 147.668 33.5664C148.129 32.9336 148.359 31.9258 148.359 30.543C148.359 29.3633 148.129 28.4492 147.668 27.8008C147.207 27.1523 146.559 26.8281 145.723 26.8281C144.895 26.8281 144.254 27.1523 143.801 27.8008C143.348 28.4414 143.121 29.4375 143.121 30.7891ZM146.391 19H150.082L146.836 22.6328H144.082L146.391 19ZM156.949 24.3203L157.055 25.7852C157.961 24.6523 159.176 24.0859 160.699 24.0859C162.043 24.0859 163.043 24.4805 163.699 25.2695C164.355 26.0586 164.691 27.2383 164.707 28.8086V37H161.32V28.8906C161.32 28.1719 161.164 27.6523 160.852 27.332C160.539 27.0039 160.02 26.8398 159.293 26.8398C158.34 26.8398 157.625 27.2461 157.148 28.0586V37H153.762V24.3203H156.949Z" fill="#FFC700"/>
<path d="M467.297 29.7539H464.496V36H460.98V18.9375H467.32C469.336 18.9375 470.891 19.3867 471.984 20.2852C473.078 21.1836 473.625 22.4531 473.625 24.0938C473.625 25.2578 473.371 26.2305 472.863 27.0117C472.363 27.7852 471.602 28.4023 470.578 28.8633L474.27 35.8359V36H470.496L467.297 29.7539ZM464.496 26.9062H467.332C468.215 26.9062 468.898 26.6836 469.383 26.2383C469.867 25.7852 470.109 25.1641 470.109 24.375C470.109 23.5703 469.879 22.9375 469.418 22.4766C468.965 22.0156 468.266 21.7852 467.32 21.7852H464.496V26.9062ZM481.922 36.2344C480.062 36.2344 478.547 35.6641 477.375 34.5234C476.211 33.3828 475.629 31.8633 475.629 29.9648V29.6367C475.629 28.3633 475.875 27.2266 476.367 26.2266C476.859 25.2188 477.555 24.4453 478.453 23.9062C479.359 23.3594 480.391 23.0859 481.547 23.0859C483.281 23.0859 484.645 23.6328 485.637 24.7266C486.637 25.8203 487.137 27.3711 487.137 29.3789V30.7617H479.062C479.172 31.5898 479.5 32.2539 480.047 32.7539C480.602 33.2539 481.301 33.5039 482.145 33.5039C483.449 33.5039 484.469 33.0312 485.203 32.0859L486.867 33.9492C486.359 34.668 485.672 35.2305 484.805 35.6367C483.938 36.0352 482.977 36.2344 481.922 36.2344ZM481.535 25.8281C480.863 25.8281 480.316 26.0547 479.895 26.5078C479.48 26.9609 479.215 27.6094 479.098 28.4531H483.809V28.1836C483.793 27.4336 483.59 26.8555 483.199 26.4492C482.809 26.0352 482.254 25.8281 481.535 25.8281ZM493.652 31.8633L496.008 23.3203H499.547L495.27 36H492.035L487.758 23.3203H491.297L493.652 31.8633ZM504.621 36H501.223V23.3203H504.621V36ZM501.023 20.0391C501.023 19.5312 501.191 19.1133 501.527 18.7852C501.871 18.457 502.336 18.293 502.922 18.293C503.5 18.293 503.961 18.457 504.305 18.7852C504.648 19.1133 504.82 19.5312 504.82 20.0391C504.82 20.5547 504.645 20.9766 504.293 21.3047C503.949 21.6328 503.492 21.7969 502.922 21.7969C502.352 21.7969 501.891 21.6328 501.539 21.3047C501.195 20.9766 501.023 20.5547 501.023 20.0391ZM514.289 32.4961C514.289 32.082 514.082 31.7578 513.668 31.5234C513.262 31.2812 512.605 31.0664 511.699 30.8789C508.684 30.2461 507.176 28.9648 507.176 27.0352C507.176 25.9102 507.641 24.9727 508.57 24.2227C509.508 23.4648 510.73 23.0859 512.238 23.0859C513.848 23.0859 515.133 23.4648 516.094 24.2227C517.062 24.9805 517.547 25.9648 517.547 27.1758H514.16C514.16 26.6914 514.004 26.293 513.691 25.9805C513.379 25.6602 512.891 25.5 512.227 25.5C511.656 25.5 511.215 25.6289 510.902 25.8867C510.59 26.1445 510.434 26.4727 510.434 26.8711C510.434 27.2461 510.609 27.5508 510.961 27.7852C511.32 28.0117 511.922 28.2109 512.766 28.3828C513.609 28.5469 514.32 28.7344 514.898 28.9453C516.688 29.6016 517.582 30.7383 517.582 32.3555C517.582 33.5117 517.086 34.4492 516.094 35.168C515.102 35.8789 513.82 36.2344 512.25 36.2344C511.188 36.2344 510.242 36.0469 509.414 35.6719C508.594 35.2891 507.949 34.7695 507.48 34.1133C507.012 33.4492 506.777 32.7344 506.777 31.9688H509.988C510.02 32.5703 510.242 33.0312 510.656 33.3516C511.07 33.6719 511.625 33.832 512.32 33.832C512.969 33.832 513.457 33.7109 513.785 33.4688C514.121 33.2188 514.289 32.8945 514.289 32.4961ZM523.348 36H519.949V23.3203H523.348V36ZM519.75 20.0391C519.75 19.5312 519.918 19.1133 520.254 18.7852C520.598 18.457 521.062 18.293 521.648 18.293C522.227 18.293 522.688 18.457 523.031 18.7852C523.375 19.1133 523.547 19.5312 523.547 20.0391C523.547 20.5547 523.371 20.9766 523.02 21.3047C522.676 21.6328 522.219 21.7969 521.648 21.7969C521.078 21.7969 520.617 21.6328 520.266 21.3047C519.922 20.9766 519.75 20.5547 519.75 20.0391ZM525.621 29.543C525.621 28.2852 525.863 27.1641 526.348 26.1797C526.832 25.1953 527.527 24.4336 528.434 23.8945C529.348 23.3555 530.406 23.0859 531.609 23.0859C533.32 23.0859 534.715 23.6094 535.793 24.6562C536.879 25.7031 537.484 27.125 537.609 28.9219L537.633 29.7891C537.633 31.7344 537.09 33.2969 536.004 34.4766C534.918 35.6484 533.461 36.2344 531.633 36.2344C529.805 36.2344 528.344 35.6484 527.25 34.4766C526.164 33.3047 525.621 31.7109 525.621 29.6953V29.543ZM529.008 29.7891C529.008 30.9922 529.234 31.9141 529.688 32.5547C530.141 33.1875 530.789 33.5039 531.633 33.5039C532.453 33.5039 533.094 33.1914 533.555 32.5664C534.016 31.9336 534.246 30.9258 534.246 29.543C534.246 28.3633 534.016 27.4492 533.555 26.8008C533.094 26.1523 532.445 25.8281 531.609 25.8281C530.781 25.8281 530.141 26.1523 529.688 26.8008C529.234 27.4414 529.008 28.4375 529.008 29.7891ZM532.277 18H535.969L532.723 21.6328H529.969L532.277 18ZM542.836 23.3203L542.941 24.7852C543.848 23.6523 545.062 23.0859 546.586 23.0859C547.93 23.0859 548.93 23.4805 549.586 24.2695C550.242 25.0586 550.578 26.2383 550.594 27.8086V36H547.207V27.8906C547.207 27.1719 547.051 26.6523 546.738 26.332C546.426 26.0039 545.906 25.8398 545.18 25.8398C544.227 25.8398 543.512 26.2461 543.035 27.0586V36H539.648V23.3203H542.836ZM563.883 31.207L566.227 23.3203H569.859L564.762 37.9688L564.48 38.6367C563.723 40.293 562.473 41.1211 560.73 41.1211C560.238 41.1211 559.738 41.0469 559.23 40.8984V38.332L559.746 38.3438C560.387 38.3438 560.863 38.2461 561.176 38.0508C561.496 37.8555 561.746 37.5312 561.926 37.0781L562.324 36.0352L557.883 23.3203H561.527L563.883 31.207ZM588.586 29.7773C588.586 31.7305 588.141 33.2969 587.25 34.4766C586.367 35.6484 585.172 36.2344 583.664 36.2344C582.383 36.2344 581.348 35.7891 580.559 34.8984V40.875H577.172V23.3203H580.312L580.43 24.5625C581.25 23.5781 582.32 23.0859 583.641 23.0859C585.203 23.0859 586.418 23.6641 587.285 24.8203C588.152 25.9766 588.586 27.5703 588.586 29.6016V29.7773ZM585.199 29.5312C585.199 28.3516 584.988 27.4414 584.566 26.8008C584.152 26.1602 583.547 25.8398 582.75 25.8398C581.688 25.8398 580.957 26.2461 580.559 27.0586V32.25C580.973 33.0859 581.711 33.5039 582.773 33.5039C584.391 33.5039 585.199 32.1797 585.199 29.5312ZM598.043 36C597.887 35.6953 597.773 35.3164 597.703 34.8633C596.883 35.7773 595.816 36.2344 594.504 36.2344C593.262 36.2344 592.23 35.875 591.41 35.1562C590.598 34.4375 590.191 33.5312 590.191 32.4375C590.191 31.0938 590.688 30.0625 591.68 29.3438C592.68 28.625 594.121 28.2617 596.004 28.2539H597.562V27.5273C597.562 26.9414 597.41 26.4727 597.105 26.1211C596.809 25.7695 596.336 25.5938 595.688 25.5938C595.117 25.5938 594.668 25.7305 594.34 26.0039C594.02 26.2773 593.859 26.6523 593.859 27.1289H590.473C590.473 26.3945 590.699 25.7148 591.152 25.0898C591.605 24.4648 592.246 23.9766 593.074 23.625C593.902 23.2656 594.832 23.0859 595.863 23.0859C597.426 23.0859 598.664 23.4805 599.578 24.2695C600.5 25.0508 600.961 26.1523 600.961 27.5742V33.0703C600.969 34.2734 601.137 35.1836 601.465 35.8008V36H598.043ZM595.242 33.6445C595.742 33.6445 596.203 33.5352 596.625 33.3164C597.047 33.0898 597.359 32.7891 597.562 32.4141V30.2344H596.297C594.602 30.2344 593.699 30.8203 593.59 31.9922L593.578 32.1914C593.578 32.6133 593.727 32.9609 594.023 33.2344C594.32 33.5078 594.727 33.6445 595.242 33.6445ZM603.07 29.5664C603.07 27.6211 603.531 26.0547 604.453 24.8672C605.383 23.6797 606.633 23.0859 608.203 23.0859C609.594 23.0859 610.676 23.5625 611.449 24.5156L611.59 23.3203H614.66V35.5781C614.66 36.6875 614.406 37.6523 613.898 38.4727C613.398 39.293 612.691 39.918 611.777 40.3477C610.863 40.7773 609.793 40.9922 608.566 40.9922C607.637 40.9922 606.73 40.8047 605.848 40.4297C604.965 40.0625 604.297 39.5859 603.844 39L605.344 36.9375C606.188 37.8828 607.211 38.3555 608.414 38.3555C609.312 38.3555 610.012 38.1133 610.512 37.6289C611.012 37.1523 611.262 36.4727 611.262 35.5898V34.9102C610.48 35.793 609.453 36.2344 608.18 36.2344C606.656 36.2344 605.422 35.6406 604.477 34.4531C603.539 33.2578 603.07 31.6758 603.07 29.707V29.5664ZM606.457 29.8125C606.457 30.9609 606.688 31.8633 607.148 32.5195C607.609 33.168 608.242 33.4922 609.047 33.4922C610.078 33.4922 610.816 33.1055 611.262 32.332V27C610.809 26.2266 610.078 25.8398 609.07 25.8398C608.258 25.8398 607.617 26.1719 607.148 26.8359C606.688 27.5 606.457 28.4922 606.457 29.8125ZM616.746 29.543C616.746 28.2852 616.988 27.1641 617.473 26.1797C617.957 25.1953 618.652 24.4336 619.559 23.8945C620.473 23.3555 621.531 23.0859 622.734 23.0859C624.445 23.0859 625.84 23.6094 626.918 24.6562C628.004 25.7031 628.609 27.125 628.734 28.9219L628.758 29.7891C628.758 31.7344 628.215 33.2969 627.129 34.4766C626.043 35.6484 624.586 36.2344 622.758 36.2344C620.93 36.2344 619.469 35.6484 618.375 34.4766C617.289 33.3047 616.746 31.7109 616.746 29.6953V29.543ZM620.133 29.7891C620.133 30.9922 620.359 31.9141 620.812 32.5547C621.266 33.1875 621.914 33.5039 622.758 33.5039C623.578 33.5039 624.219 33.1914 624.68 32.5664C625.141 31.9336 625.371 30.9258 625.371 29.543C625.371 28.3633 625.141 27.4492 624.68 26.8008C624.219 26.1523 623.57 25.8281 622.734 25.8281C621.906 25.8281 621.266 26.1523 620.812 26.8008C620.359 27.4414 620.133 28.4375 620.133 29.7891Z" fill="#808080"/>
<path d="M288.027 34.4844H281.863L280.691 38H276.953L283.305 20.9375H286.562L292.949 38H289.211L288.027 34.4844ZM282.812 31.6367H287.078L284.934 25.25L282.812 31.6367ZM297.895 38H294.496V20H297.895V38ZM305.969 35.5039C306.594 35.5039 307.102 35.332 307.492 34.9883C307.883 34.6445 308.086 34.1875 308.102 33.6172H311.277C311.27 34.4766 311.035 35.2656 310.574 35.9844C310.113 36.6953 309.48 37.25 308.676 37.6484C307.879 38.0391 306.996 38.2344 306.027 38.2344C304.215 38.2344 302.785 37.6602 301.738 36.5117C300.691 35.3555 300.168 33.7617 300.168 31.7305V31.5078C300.168 29.5547 300.688 27.9961 301.727 26.832C302.766 25.668 304.191 25.0859 306.004 25.0859C307.59 25.0859 308.859 25.5391 309.812 26.4453C310.773 27.3438 311.262 28.543 311.277 30.043H308.102C308.086 29.3867 307.883 28.8555 307.492 28.4492C307.102 28.0352 306.586 27.8281 305.945 27.8281C305.156 27.8281 304.559 28.1172 304.152 28.6953C303.754 29.2656 303.555 30.1953 303.555 31.4844V31.8359C303.555 33.1406 303.754 34.0781 304.152 34.6484C304.551 35.2188 305.156 35.5039 305.969 35.5039ZM320.559 38C320.402 37.6953 320.289 37.3164 320.219 36.8633C319.398 37.7773 318.332 38.2344 317.02 38.2344C315.777 38.2344 314.746 37.875 313.926 37.1562C313.113 36.4375 312.707 35.5312 312.707 34.4375C312.707 33.0938 313.203 32.0625 314.195 31.3438C315.195 30.625 316.637 30.2617 318.52 30.2539H320.078V29.5273C320.078 28.9414 319.926 28.4727 319.621 28.1211C319.324 27.7695 318.852 27.5938 318.203 27.5938C317.633 27.5938 317.184 27.7305 316.855 28.0039C316.535 28.2773 316.375 28.6523 316.375 29.1289H312.988C312.988 28.3945 313.215 27.7148 313.668 27.0898C314.121 26.4648 314.762 25.9766 315.59 25.625C316.418 25.2656 317.348 25.0859 318.379 25.0859C319.941 25.0859 321.18 25.4805 322.094 26.2695C323.016 27.0508 323.477 28.1523 323.477 29.5742V35.0703C323.484 36.2734 323.652 37.1836 323.98 37.8008V38H320.559ZM317.758 35.6445C318.258 35.6445 318.719 35.5352 319.141 35.3164C319.562 35.0898 319.875 34.7891 320.078 34.4141V32.2344H318.812C317.117 32.2344 316.215 32.8203 316.105 33.9922L316.094 34.1914C316.094 34.6133 316.242 34.9609 316.539 35.2344C316.836 35.5078 317.242 35.6445 317.758 35.6445ZM329.652 38H326.254V20H329.652V38ZM331.926 31.5664C331.926 29.5898 332.367 28.0156 333.25 26.8438C334.141 25.6719 335.355 25.0859 336.895 25.0859C338.129 25.0859 339.148 25.5469 339.953 26.4688V20H343.352V38H340.293L340.129 36.6523C339.285 37.707 338.199 38.2344 336.871 38.2344C335.379 38.2344 334.18 37.6484 333.273 36.4766C332.375 35.2969 331.926 33.6602 331.926 31.5664ZM335.312 31.8125C335.312 33 335.52 33.9102 335.934 34.543C336.348 35.1758 336.949 35.4922 337.738 35.4922C338.785 35.4922 339.523 35.0508 339.953 34.168V29.1641C339.531 28.2812 338.801 27.8398 337.762 27.8398C336.129 27.8398 335.312 29.1641 335.312 31.8125ZM349.633 38H346.246V25.3203H349.633V38ZM348.637 20.1758H352.328L349.082 23.8086H346.328L348.637 20.1758ZM359.91 38C359.754 37.6953 359.641 37.3164 359.57 36.8633C358.75 37.7773 357.684 38.2344 356.371 38.2344C355.129 38.2344 354.098 37.875 353.277 37.1562C352.465 36.4375 352.059 35.5312 352.059 34.4375C352.059 33.0938 352.555 32.0625 353.547 31.3438C354.547 30.625 355.988 30.2617 357.871 30.2539H359.43V29.5273C359.43 28.9414 359.277 28.4727 358.973 28.1211C358.676 27.7695 358.203 27.5938 357.555 27.5938C356.984 27.5938 356.535 27.7305 356.207 28.0039C355.887 28.2773 355.727 28.6523 355.727 29.1289H352.34C352.34 28.3945 352.566 27.7148 353.02 27.0898C353.473 26.4648 354.113 25.9766 354.941 25.625C355.77 25.2656 356.699 25.0859 357.73 25.0859C359.293 25.0859 360.531 25.4805 361.445 26.2695C362.367 27.0508 362.828 28.1523 362.828 29.5742V35.0703C362.836 36.2734 363.004 37.1836 363.332 37.8008V38H359.91ZM357.109 35.6445C357.609 35.6445 358.07 35.5352 358.492 35.3164C358.914 35.0898 359.227 34.7891 359.43 34.4141V32.2344H358.164C356.469 32.2344 355.566 32.8203 355.457 33.9922L355.445 34.1914C355.445 34.6133 355.594 34.9609 355.891 35.2344C356.188 35.5078 356.594 35.6445 357.109 35.6445Z" fill="#808080"/>
</svg>
